<?xml version="1.0" standalone="no"?>
<!DOCTYPE svg PUBLIC "-//W3C//DTD SVG 20010904//EN"
 "http://www.w3.org/TR/2001/REC-SVG-20010904/DTD/svg10.dtd">
<svg version="1.0" xmlns="http://www.w3.org/2000/svg"
 width="3481.000000pt" height="704.000000pt" viewBox="0 0 3481.000000 704.000000"
 preserveAspectRatio="xMidYMid meet">

<g id="line" transform="translate(0.000000,704.000000) scale(0.100000,-0.100000)"
fill="currentColor" stroke="none">
<path d="M18900 6630 c-8 -5 -25 -10 -37 -10 -13 0 -23 -5 -23 -10 0 -6 11 -8
25 -5 14 3 36 7 50 10 14 3 25 10 25 15 0 13 -21 13 -40 0z"/>
<path d="M18480 6617 c0 -10 8 -17 18 -17 9 0 13 4 7 8 -5 4 -13 11 -17 16 -5
5 -8 2 -8 -7z"/>
<path d="M18655 6620 c-3 -5 3 -10 14 -10 10 0 27 -3 35 -6 12 -5 15 -2 10 10
-7 18 -49 22 -59 6z"/>
<path d="M17950 6609 c0 -5 5 -7 10 -4 6 3 10 8 10 11 0 2 -4 4 -10 4 -5 0
-10 -5 -10 -11z"/>
<path d="M18320 6610 c-8 -5 -10 -10 -5 -10 6 0 17 5 25 10 8 5 11 10 5 10 -5
0 -17 -5 -25 -10z"/>
<path d="M19328 6613 c6 -2 18 -2 25 0 6 3 1 5 -13 5 -14 0 -19 -2 -12 -5z"/>
<path d="M19476 6605 c-3 -9 0 -15 9 -15 8 0 15 7 15 15 0 8 -4 15 -9 15 -5 0
-11 -7 -15 -15z"/>
<path d="M20817 6614 c-8 -8 3 -34 14 -34 5 0 9 9 9 20 0 19 -11 26 -23 14z"/>
<path d="M18198 6593 c7 -3 16 -2 19 1 4 3 -2 6 -13 5 -11 0 -14 -3 -6 -6z"/>
<path d="M16890 6570 c0 -5 5 -10 11 -10 5 0 7 5 4 10 -3 6 -8 10 -11 10 -2 0
-4 -4 -4 -10z"/>
<path d="M18010 6495 c0 -9 6 -12 15 -9 8 4 12 10 9 15 -8 14 -24 10 -24 -6z"/>
<path d="M18076 6495 c4 -8 8 -15 10 -15 2 0 4 7 4 15 0 8 -4 15 -10 15 -5 0
-7 -7 -4 -15z"/>
<path d="M18470 6496 c0 -12 10 -16 37 -16 41 0 36 14 -9 25 -22 6 -28 4 -28
-9z"/>
<path d="M18620 6496 c0 -9 5 -16 10 -16 6 0 10 4 10 9 0 6 -4 13 -10 16 -5 3
-10 -1 -10 -9z"/>
<path d="M18748 6503 c-21 -5 -22 -7 -5 -34 10 -17 9 -23 -10 -39 -20 -16 -21
-19 -6 -24 8 -4 24 -4 34 -1 15 5 18 12 13 32 -4 16 -2 28 6 33 7 4 10 15 7
24 -7 16 -9 17 -39 9z"/>
<path d="M19285 6500 c3 -5 10 -10 16 -10 5 0 9 5 9 10 0 6 -7 10 -16 10 -8 0
-12 -4 -9 -10z"/>
<path d="M19337 6496 c-4 -10 -1 -16 8 -16 8 0 19 -9 25 -19 10 -19 50 -19 50
0 0 12 37 12 42 0 2 -6 22 -7 46 -4 24 3 39 9 34 12 -5 3 -12 13 -15 21 -4 12
-6 11 -6 -3 -1 -16 -6 -17 -33 -12 -18 4 -38 11 -44 16 -6 5 -31 12 -56 15
-36 5 -46 3 -51 -10z"/>
<path d="M19835 6499 c-4 -6 -4 -13 -1 -16 3 -4 6 -1 6 5 0 6 8 13 18 15 15 4
15 5 0 6 -9 0 -20 -4 -23 -10z"/>
<path d="M17330 6490 c0 -5 5 -10 10 -10 6 0 10 5 10 10 0 6 -4 10 -10 10 -5
0 -10 -4 -10 -10z"/>
<path d="M17780 6490 c8 -5 22 -10 30 -10 13 0 13 1 0 10 -8 5 -22 10 -30 10
-13 0 -13 -1 0 -10z"/>
<path d="M18176 6491 c-3 -5 8 -11 25 -13 29 -5 45 3 32 16 -9 9 -51 7 -57 -3z"/>
<path d="M18926 6475 c5 -18 2 -25 -9 -25 -8 0 -18 6 -20 13 -3 7 -6 5 -6 -5
-1 -10 -8 -18 -17 -18 -8 0 -13 -4 -10 -9 3 -5 15 -7 25 -4 10 3 22 0 25 -6
10 -16 26 -13 26 4 0 8 9 15 20 15 11 0 20 -4 20 -10 0 -5 9 -10 20 -10 11 0
20 5 20 10 0 17 26 11 45 -10 21 -24 35 -26 35 -6 0 8 -10 16 -22 18 -16 2
-24 11 -26 28 -6 40 -21 48 -42 22 -14 -17 -25 -21 -44 -16 -14 3 -26 12 -26
20 0 8 -5 14 -10 14 -6 0 -8 -11 -4 -25z"/>
<path d="M19725 6490 c3 -5 13 -10 21 -10 8 0 14 5 14 10 0 6 -9 10 -21 10
-11 0 -17 -4 -14 -10z"/>
<path d="M20140 6490 c-11 -8 -8 -9 11 -4 15 3 30 1 34 -5 7 -12 25 -5 25 10
0 12 -51 11 -70 -1z"/>
<path d="M20590 6493 c0 -7 -12 -13 -27 -13 -16 0 -23 -4 -17 -9 15 -14 143
-19 148 -5 5 14 -46 26 -70 17 -9 -3 -20 0 -25 8 -6 10 -9 10 -9 2z"/>
<path d="M19780 6480 c-13 -8 -12 -10 3 -10 9 0 17 5 17 10 0 12 -1 12 -20 0z"/>
<path d="M20847 6441 c-9 -27 -17 -50 -17 -52 0 -2 28 -4 62 -3 60 1 63 2 66
27 2 16 10 27 18 27 9 0 14 5 12 12 -6 16 -62 31 -66 18 -6 -16 -32 -12 -32 5
0 33 -26 12 -43 -34z"/>
<path d="M17260 6470 c0 -5 15 -10 33 -10 24 0 28 3 17 10 -20 13 -50 13 -50
0z"/>
<path d="M21080 6471 c0 -5 -9 -13 -20 -16 -15 -5 -19 -12 -14 -31 4 -16 2
-24 -7 -25 -18 -1 21 -17 42 -18 12 -1 16 8 15 37 -1 36 0 37 39 42 36 5 37 6
15 13 -35 10 -70 9 -70 -2z"/>
<path d="M21320 6471 c0 -6 -7 -11 -16 -11 -14 0 -14 -2 0 -15 19 -20 42 -19
50 1 4 10 14 14 26 11 11 -3 23 -1 26 4 3 5 -5 9 -18 9 -13 0 -33 3 -45 6 -14
4 -23 2 -23 -5z"/>
<path d="M20415 6435 c0 -41 15 -46 32 -10 9 20 8 25 -3 25 -8 0 -14 5 -14 10
0 6 -3 10 -7 10 -5 0 -8 -16 -8 -35z"/>
<path d="M20771 6461 c-7 -5 -11 -15 -9 -22 3 -10 8 -7 17 9 13 24 12 26 -8
13z"/>
<path d="M16552 6437 c-12 -13 -22 -28 -22 -34 0 -14 51 -27 59 -14 3 5 19 13
34 16 23 6 27 4 27 -14 0 -22 19 -28 36 -12 5 5 23 12 41 16 24 5 34 2 43 -12
10 -17 11 -17 8 2 -2 15 -15 23 -46 29 -31 7 -42 15 -42 29 0 14 -4 17 -17 11
-23 -9 -52 -10 -79 -1 -15 5 -26 1 -42 -16z"/>
<path d="M21960 6448 c0 -12 7 -18 23 -17 15 0 17 2 7 6 -8 3 -18 11 -22 17
-5 7 -8 4 -8 -6z"/>
<path d="M22058 6453 c-22 -6 -23 -19 -2 -27 29 -11 44 -6 44 14 0 20 -8 22
-42 13z"/>
<path d="M21733 6443 c9 -2 25 -2 35 0 9 3 1 5 -18 5 -19 0 -27 -2 -17 -5z"/>
<path d="M22303 6443 c-7 -3 -13 -8 -13 -13 0 -14 54 -21 81 -11 l24 9 -30 7
c-16 4 -34 8 -40 9 -5 2 -16 1 -22 -1z"/>
<path d="M16160 6425 c0 -18 -9 -19 -46 -5 -18 7 -30 7 -39 0 -7 -5 -26 -7
-44 -4 -20 4 -31 3 -31 -5 0 -6 -16 -11 -35 -11 -42 0 -45 -14 -6 -34 20 -11
50 -14 102 -11 96 5 209 17 209 22 0 12 -40 42 -69 52 -42 14 -41 14 -41 -4z"/>
<path d="M17390 6420 c0 -5 5 -10 11 -10 5 0 7 5 4 10 -3 6 -8 10 -11 10 -2 0
-4 -4 -4 -10z"/>
<path d="M22610 6420 c0 -5 4 -10 9 -10 6 0 13 5 16 10 3 6 -1 10 -9 10 -9 0
-16 -4 -16 -10z"/>
<path d="M18110 6410 c0 -5 9 -10 20 -10 11 0 20 5 20 10 0 6 -9 10 -20 10
-11 0 -20 -4 -20 -10z"/>
<path d="M18638 6413 c7 -3 16 -2 19 1 4 3 -2 6 -13 5 -11 0 -14 -3 -6 -6z"/>
<path d="M20748 6415 c-4 -4 -4 -13 -1 -21 6 -16 39 -19 48 -4 3 6 -3 10 -14
10 -10 0 -21 5 -23 11 -2 5 -6 7 -10 4z"/>
<path d="M17650 6400 c-9 -6 -10 -10 -3 -10 6 0 15 5 18 10 8 12 4 12 -15 0z"/>
<path d="M18468 6403 c6 -2 18 -2 25 0 6 3 1 5 -13 5 -14 0 -19 -2 -12 -5z"/>
<path d="M22726 6400 c-17 -6 -18 -7 -3 -13 9 -3 19 -2 23 4 9 15 2 18 -20 9z"/>
<path d="M23095 6395 l-40 -13 63 -1 c35 -1 62 3 62 9 0 6 -4 10 -9 10 -5 0
-15 2 -23 4 -7 3 -31 -1 -53 -9z"/>
<path d="M15813 6393 c-7 -2 -13 -9 -13 -14 0 -15 40 -10 56 6 14 13 13 15 -8
14 -13 0 -29 -3 -35 -6z"/>
<path d="M16820 6390 c0 -5 7 -10 15 -10 8 0 15 5 15 10 0 6 -7 10 -15 10 -8
0 -15 -4 -15 -10z"/>
<path d="M20655 6390 c3 -5 8 -10 11 -10 2 0 4 5 4 10 0 6 -5 10 -11 10 -5 0
-7 -4 -4 -10z"/>
<path d="M21328 6393 c-10 -2 -18 -9 -18 -14 0 -15 36 -10 50 6 13 16 5 18
-32 8z"/>
<path d="M23328 6393 c-28 -4 -36 -17 -19 -27 4 -3 17 1 27 9 22 17 54 20 54
5 0 -5 9 -10 19 -10 11 0 23 5 26 10 3 6 0 10 -8 10 -8 0 -27 2 -43 4 -16 2
-41 2 -56 -1z"/>
<path d="M15436 6375 c-4 -11 -22 -15 -71 -15 -36 0 -65 -4 -65 -9 0 -11 63
-21 70 -11 3 4 50 6 105 6 55 -1 115 2 133 8 24 7 35 7 40 -2 5 -7 13 -8 22
-2 8 6 33 10 54 10 76 0 32 11 -94 22 -8 1 -45 -1 -82 -5 -45 -5 -68 -4 -68 3
0 16 -37 12 -44 -5z"/>
<path d="M21425 6380 c3 -5 10 -10 16 -10 5 0 9 5 9 10 0 6 -7 10 -16 10 -8 0
-12 -4 -9 -10z"/>
<path d="M23737 6383 c-16 -15 -7 -34 13 -28 10 3 29 1 40 -5 11 -6 44 -10 73
-8 l52 3 -50 13 c-27 7 -60 13 -72 13 -13 -1 -23 4 -23 9 0 11 -23 14 -33 3z"/>
<path d="M16315 6370 c-3 -5 1 -10 9 -10 8 0 18 5 21 10 3 6 -1 10 -9 10 -8 0
-18 -4 -21 -10z"/>
<path d="M15045 6359 c-38 -6 -38 -6 -7 -8 17 0 32 -6 32 -12 0 -6 7 -9 14 -6
8 3 37 2 65 -2 60 -10 111 -3 111 14 0 17 -28 27 -33 12 -3 -9 -9 -9 -26 1
-26 15 -48 16 -53 0 -3 -8 -13 -9 -34 -2 -16 5 -47 7 -69 3z"/>
<path d="M24186 6345 c-4 -12 5 -15 49 -15 31 0 55 5 55 10 0 6 -11 8 -25 4
-15 -4 -25 -2 -25 5 0 17 -47 13 -54 -4z"/>
<path d="M14497 6344 c-9 -10 2 -24 19 -24 8 0 14 7 14 15 0 15 -21 21 -33 9z"/>
<path d="M14760 6346 c0 -2 7 -9 15 -16 9 -7 15 -8 15 -2 0 5 -7 12 -15 16 -8
3 -15 4 -15 2z"/>
<path d="M14155 6333 c-38 -9 -85 -35 -79 -44 3 -5 11 -6 17 -2 7 4 34 8 61 8
30 0 51 5 54 13 2 6 10 12 18 12 8 0 17 -6 19 -12 4 -9 28 -12 83 -11 42 1 89
2 103 3 37 0 46 28 13 36 -17 4 -29 2 -34 -7 -7 -10 -14 -10 -35 -1 -28 13
-95 6 -95 -9 0 -5 -7 -9 -15 -9 -8 0 -15 7 -15 15 0 15 -48 19 -95 8z"/>
<path d="M14570 6325 c0 -9 9 -15 21 -15 18 0 19 2 5 15 -8 8 -17 15 -20 15
-3 0 -6 -7 -6 -15z"/>
<path d="M14920 6336 c0 -2 7 -6 15 -10 8 -3 15 -1 15 4 0 6 -7 10 -15 10 -8
0 -15 -2 -15 -4z"/>
<path d="M24098 6333 c12 -2 30 -2 40 0 9 3 -1 5 -23 4 -22 0 -30 -2 -17 -4z"/>
<path d="M24560 6326 c0 -7 10 -16 23 -20 41 -11 57 -7 57 14 0 17 -7 20 -40
20 -27 0 -40 -4 -40 -14z"/>
<path d="M13890 6310 c0 -12 8 -15 35 -12 19 2 35 0 35 -5 0 -5 18 -7 39 -5
34 3 38 6 30 20 -15 24 -139 25 -139 2z"/>
<path d="M24433 6315 c11 -7 25 -11 33 -8 25 10 15 23 -18 23 -31 -1 -32 -2
-15 -15z"/>
<path d="M24770 6315 c-7 -9 -11 -18 -8 -20 3 -3 11 1 18 10 7 9 11 18 8 20
-3 3 -11 -1 -18 -10z"/>
<path d="M13648 6313 c-78 -8 -21 -34 72 -33 51 1 55 3 47 25 -6 15 -32 17
-119 8z"/>
<path d="M13790 6316 c0 -2 9 -6 20 -9 11 -3 20 -1 20 4 0 5 -9 9 -20 9 -11 0
-20 -2 -20 -4z"/>
<path d="M13326 6301 c-14 -5 -8 -9 27 -18 37 -8 47 -7 51 4 3 7 0 13 -7 13
-7 0 -21 2 -32 5 -11 2 -28 1 -39 -4z"/>
<path d="M13450 6295 c0 -9 9 -15 25 -15 16 0 25 6 25 15 0 9 -9 15 -25 15
-16 0 -25 -6 -25 -15z"/>
<path d="M19103 6296 c4 -10 7 -22 7 -27 0 -5 4 -9 9 -9 12 0 2 38 -12 47 -7
4 -8 0 -4 -11z"/>
<path d="M19548 6303 c7 -3 16 -2 19 1 4 3 -2 6 -13 5 -11 0 -14 -3 -6 -6z"/>
<path d="M19660 6290 c0 -11 -4 -20 -9 -20 -6 0 -11 -15 -13 -32 l-3 -33 -155
-2 c-94 -2 -156 -7 -158 -13 -4 -11 -42 -14 -42 -2 0 6 -78 14 -160 15 -19 0
-77 -3 -127 -7 -56 -4 -108 -3 -130 3 -26 7 -41 7 -50 0 -8 -7 -22 -8 -40 -2
-16 5 -39 6 -53 3 -25 -7 -378 -2 -390 5 -12 7 -184 -15 -194 -25 -12 -12 -46
-13 -46 -2 0 4 -39 8 -87 9 -49 0 -119 1 -158 2 -208 4 -582 -8 -607 -19 -21
-10 -31 -10 -41 -1 -10 8 -57 10 -158 6 -79 -3 -243 -7 -364 -10 -137 -3 -231
-10 -249 -17 -23 -9 -31 -9 -34 0 -5 15 -54 15 -103 2 -27 -8 -45 -7 -71 4
-21 9 -39 11 -44 6 -6 -6 -31 -6 -62 -1 -28 4 -52 4 -52 0 0 -5 -11 -9 -25 -9
-14 0 -34 -6 -45 -12 -17 -11 -22 -10 -29 1 -7 11 -25 13 -88 7 -117 -11 -122
-12 -128 -17 -2 -3 -71 -4 -151 -3 -86 2 -168 -2 -197 -9 -39 -9 -51 -9 -55 1
-2 7 -10 9 -20 4 -20 -10 -189 -8 -199 1 -9 9 -48 9 -57 0 -4 -5 -51 -8 -104
-9 -54 0 -133 -6 -177 -12 -44 -7 -163 -13 -265 -12 -102 0 -210 -2 -240 -5
-30 -2 -127 -7 -215 -10 -88 -3 -187 -8 -220 -11 -33 -3 -103 -5 -156 -4 -76
1 -98 -2 -108 -14 -17 -20 -40 -21 -47 -2 -3 8 -11 13 -17 11 -11 -4 -89 -9
-272 -18 -33 -2 -68 1 -78 6 -10 5 -26 5 -35 1 -9 -4 -56 -6 -104 -5 -48 2
-92 0 -99 -4 -6 -5 -106 -8 -221 -9 -187 -1 -211 -3 -222 -19 -16 -21 -36 -22
-36 -1 0 11 -5 14 -17 9 -34 -13 -83 -18 -83 -7 0 6 -40 8 -112 6 -62 -3 -171
-6 -243 -7 -71 -1 -135 -5 -140 -9 -20 -12 -85 -20 -85 -10 0 11 -202 9 -490
-5 -91 -4 -216 -7 -277 -7 -89 1 -113 -2 -113 -12 0 -16 -27 -19 -32 -3 -6 18
-38 -2 -37 -25 0 -11 3 -15 6 -8 9 22 33 13 33 -13 0 -14 3 -25 8 -26 4 0 21
-2 39 -3 20 -2 34 1 37 10 6 17 36 19 36 3 0 -8 5 -7 15 1 12 10 22 10 39 2
13 -6 34 -8 45 -5 14 4 28 -1 39 -15 14 -16 22 -18 37 -10 10 6 49 11 87 12
37 0 68 4 68 9 0 4 37 8 83 7 153 -2 158 -2 164 20 6 22 33 28 33 6 0 -7 7
-19 16 -27 13 -11 33 -10 117 4 73 13 102 15 107 7 5 -8 37 -10 101 -6 102 6
139 7 209 6 24 -1 46 3 48 9 4 13 32 15 32 2 0 -6 48 -9 115 -8 63 1 115 5
115 10 0 4 9 7 20 7 11 0 20 -5 20 -11 0 -7 12 -9 35 -5 32 6 35 5 35 -18 0
-53 -24 -72 -50 -41 -16 19 -44 19 -63 1 -11 -11 -29 -13 -69 -9 -42 4 -56 2
-67 -11 -14 -17 -41 -22 -41 -8 0 11 -125 9 -162 -2 -24 -7 -28 -5 -28 13 0
20 -1 20 -18 3 -15 -15 -32 -18 -83 -17 -35 1 -69 -2 -76 -7 -7 -6 -25 -6 -47
0 -19 6 -38 7 -41 4 -4 -4 -99 -8 -212 -8 -178 -2 -207 -4 -215 -18 -12 -20
-45 -21 -65 0 -11 11 -24 14 -42 9 -14 -4 -90 -7 -168 -8 -120 0 -143 -2 -143
-15 0 -11 -9 -13 -40 -9 -22 3 -43 1 -46 -4 -8 -14 -34 -11 -34 4 0 9 -11 12
-32 11 -18 -2 -59 -4 -90 -6 -32 -2 -58 -6 -58 -9 0 -4 -12 -10 -26 -13 -20
-5 -32 -2 -46 14 -17 19 -29 20 -126 18 -71 -2 -112 -7 -121 -16 -7 -7 -26
-12 -41 -10 -15 1 -34 -3 -41 -9 -8 -6 -26 -14 -41 -18 -24 -6 -29 -3 -38 20
l-10 27 -108 -6 c-59 -3 -112 -6 -119 -6 -8 0 -8 -7 0 -30 8 -22 8 -33 0 -41
-18 -18 -40 -4 -46 29 -6 29 -7 30 -37 19 -25 -10 -33 -9 -40 3 -7 11 -30 15
-90 16 -44 1 -80 -2 -80 -7 0 -14 -48 -11 -53 4 -3 7 -6 5 -6 -5 -1 -19 -31
-26 -31 -7 0 7 -11 8 -30 4 -22 -5 -30 -3 -30 7 0 18 -162 18 -168 0 -4 -14
-52 -16 -52 -2 0 19 -38 10 -43 -10 -3 -11 -14 -20 -24 -20 -11 0 -29 -9 -41
-21 -15 -14 -29 -18 -43 -14 -15 5 -19 4 -14 -4 4 -8 26 -10 58 -8 41 3 54 8
62 25 10 23 35 30 35 11 0 -6 7 -17 15 -26 13 -12 49 -15 189 -16 96 -1 178
-5 182 -10 12 -12 24 -8 24 8 0 10 11 15 35 15 19 0 35 -4 35 -10 0 -5 16 -10
35 -10 19 0 35 5 35 10 0 6 7 10 15 10 8 0 15 -5 15 -11 0 -15 -26 -39 -43
-39 -8 0 -17 -7 -21 -15 -6 -17 -56 -21 -56 -5 0 6 -6 10 -14 10 -8 0 -17 8
-19 18 -4 16 -5 16 -6 -1 -1 -14 -9 -18 -43 -17 -24 1 -115 -4 -202 -11 -128
-10 -163 -16 -178 -31 -13 -13 -29 -17 -68 -14 -28 2 -56 8 -63 14 -16 14 -67
3 -67 -14 0 -8 -9 -14 -20 -14 -11 0 -20 7 -20 15 0 19 -19 19 -139 1 -51 -8
-117 -12 -145 -9 -41 4 -56 2 -70 -12 -12 -13 -27 -16 -51 -12 -19 3 -37 1
-40 -4 -9 -14 -41 -11 -56 7 -10 12 -22 14 -54 9 -22 -4 -80 -9 -128 -10 -49
-2 -94 -8 -100 -14 -14 -14 -54 -14 -62 -1 -3 6 -16 8 -28 5 -32 -7 -176 -18
-220 -17 -20 1 -37 -3 -37 -8 0 -6 -7 -10 -15 -10 -8 0 -15 5 -15 11 0 8 -35
9 -117 5 -65 -3 -192 -8 -283 -11 -91 -3 -178 -9 -195 -12 -16 -3 -85 -7 -152
-8 -112 -2 -125 -4 -142 -24 -19 -22 -41 -28 -41 -12 0 14 -63 26 -68 12 -2
-6 -10 -11 -18 -11 -8 0 -14 -4 -14 -10 0 -6 9 -6 26 0 14 6 30 10 35 10 16 0
10 -25 -11 -43 -22 -19 -50 -23 -50 -7 0 6 -9 10 -20 10 -11 0 -20 5 -20 10 0
6 -13 10 -30 10 -20 0 -33 7 -41 22 l-12 22 -8 -22 c-7 -17 -16 -22 -46 -22
-21 0 -47 7 -57 15 -25 19 -36 19 -36 0 0 -22 -28 -18 -41 6 -10 20 -17 21
-132 18 -84 -3 -131 -9 -151 -19 -22 -12 -30 -12 -33 -2 -6 16 -65 16 -81 0
-10 -10 -17 -10 -32 0 -21 13 -49 6 -66 -17 -10 -12 -16 -13 -43 -2 -17 8 -31
18 -31 23 0 5 -15 7 -33 4 -17 -3 -108 -8 -202 -12 -229 -8 -254 -10 -283 -26
-20 -10 -26 -10 -29 0 -5 14 -43 17 -43 2 0 -13 -27 -13 -32 0 -4 12 -148 1
-148 -11 0 -5 5 -9 10 -9 6 0 10 -7 10 -15 0 -8 -7 -15 -15 -15 -8 0 -15 7
-15 15 0 11 -7 14 -25 9 -15 -4 -25 -2 -25 5 0 6 -8 11 -18 11 -22 0 -72 -22
-72 -32 0 -5 -7 -8 -15 -8 -8 0 -15 5 -15 11 0 15 -140 1 -157 -17 -20 -20
-53 -27 -68 -14 -11 9 -40 9 -122 1 -128 -14 -143 -18 -143 -37 0 -8 -9 -14
-21 -14 -12 0 -23 -8 -26 -20 -6 -21 -29 -27 -35 -9 -3 8 -23 9 -66 4 -52 -6
-62 -10 -62 -26 0 -10 -7 -19 -15 -19 -8 0 -15 5 -15 11 0 7 -10 9 -27 4 -36
-9 -35 -7 -22 -44 13 -38 14 -37 -30 -46 -30 -6 -33 -5 -29 12 5 19 -13 43
-32 43 -5 0 -10 5 -10 10 0 6 -4 10 -10 10 -5 0 -10 -7 -10 -16 0 -8 -8 -23
-17 -32 -16 -16 -16 -17 0 -20 9 -2 17 -10 17 -17 0 -11 17 -14 70 -13 58 1
71 5 76 20 6 20 30 24 36 6 3 -7 7 -3 10 8 4 17 2 20 -13 17 -14 -4 -19 0 -19
16 0 17 6 21 30 21 24 0 31 -5 36 -27 4 -14 2 -34 -5 -44 -6 -10 -11 -25 -11
-33 0 -8 -16 -16 -43 -20 -107 -16 -122 -19 -132 -30 -16 -16 -26 -46 -15 -46
6 0 10 -7 10 -15 0 -8 -7 -15 -15 -15 -8 0 -15 4 -15 9 0 5 -9 7 -20 4 -22 -6
-29 21 -7 31 6 3 -1 3 -18 0 -16 -3 -47 -8 -67 -11 -29 -4 -38 -10 -38 -24 0
-10 -7 -19 -15 -19 -8 0 -15 9 -15 20 0 33 -25 23 -39 -15 -7 -19 -19 -35 -27
-35 -19 0 -18 -16 3 -24 11 -5 24 2 39 19 23 27 74 35 74 11 0 -8 15 -17 35
-20 23 -5 35 -13 35 -23 0 -13 8 -14 50 -9 34 5 50 3 50 -5 0 -17 -42 -48 -65
-49 -12 0 -25 -4 -30 -8 -6 -5 -30 -15 -55 -23 l-45 -14 48 -3 c31 -2 47 -8
47 -16 0 -21 -27 -38 -50 -31 -25 8 -130 -14 -130 -28 0 -5 -12 -6 -26 -3 -18
5 -32 2 -46 -11 -21 -19 -114 -29 -353 -39 -71 -3 -135 -10 -142 -16 -7 -6
-20 -7 -30 -4 -23 9 -214 -5 -207 -15 9 -15 -7 -49 -23 -49 -11 0 -14 6 -9 24
4 16 1 26 -8 29 -16 6 -36 -11 -36 -30 0 -21 -31 -15 -37 7 -6 24 -26 26 -47
5 -19 -19 -26 -19 -40 1 -11 14 -27 14 -182 -9 -93 -14 -195 -26 -227 -26 -55
-2 -57 -1 -57 23 0 26 -23 36 -35 16 -3 -6 -17 -10 -31 -10 -14 0 -27 -7 -30
-15 -4 -8 -12 -15 -19 -15 -7 0 -18 -7 -25 -15 -7 -8 -21 -15 -31 -15 -11 0
-19 -6 -19 -14 0 -8 -20 -24 -45 -36 -25 -12 -45 -26 -45 -31 0 -5 -7 -9 -16
-9 -28 0 -94 -43 -94 -61 0 -12 6 -16 20 -12 14 4 20 0 20 -11 0 -9 -4 -16
-10 -16 -5 0 -10 -13 -10 -30 0 -23 -5 -30 -19 -30 -12 0 -20 -9 -24 -29 -3
-16 -21 -45 -40 -66 -75 -82 -81 -123 -13 -104 22 6 42 7 49 1 7 -5 21 -6 32
-3 35 11 140 66 155 81 18 18 87 40 149 47 32 4 45 10 48 24 6 20 53 28 53 9
0 -15 16 -12 34 6 11 10 23 13 38 8 28 -10 61 -5 69 8 4 7 23 8 48 4 58 -9
221 14 221 31 0 7 9 13 20 13 11 0 20 -6 20 -14 0 -11 15 -13 67 -9 117 7 132
11 126 33 -4 15 0 20 16 20 12 0 21 -6 21 -15 0 -17 1 -17 120 -15 46 1 90 6
96 11 7 5 29 9 50 9 102 -1 143 5 156 23 10 13 21 16 46 11 29 -6 33 -10 28
-30 -5 -17 -2 -24 9 -24 11 0 15 -10 15 -36 0 -28 -3 -35 -17 -32 -13 3 -17
12 -16 31 2 26 1 26 -23 11 -13 -9 -24 -20 -24 -24 0 -5 -9 -12 -20 -15 -11
-3 -20 -13 -20 -20 0 -11 -10 -13 -44 -9 -25 4 -53 3 -63 -2 -19 -9 -29 -10
-130 -12 -39 -1 -67 -7 -77 -17 -17 -17 -46 -20 -46 -4 0 7 -19 9 -58 5 -31
-3 -75 -8 -97 -10 -22 -2 -41 -9 -43 -15 -5 -14 -32 -15 -32 -1 0 6 -7 10 -15
10 -8 0 -15 -4 -15 -10 0 -5 7 -10 16 -10 11 0 15 -6 11 -20 -3 -11 -1 -20 4
-20 5 0 9 7 9 15 0 8 7 15 15 15 8 0 15 5 15 10 0 6 7 10 15 10 8 0 15 -7 15
-16 0 -14 8 -16 44 -12 25 3 52 13 61 22 22 22 42 20 50 -4 5 -15 13 -18 33
-14 15 2 53 6 85 7 31 2 63 9 69 15 15 15 38 16 38 2 0 -19 75 -11 93 10 20
24 47 26 47 5 0 -18 1 -18 36 -5 35 14 194 2 194 -14 0 -12 -64 -43 -120 -58
-63 -16 -88 -29 -93 -48 -3 -10 -18 -21 -36 -25 -18 -4 -43 -18 -57 -32 -20
-20 -31 -23 -52 -18 -31 9 -30 9 -105 2 -32 -2 -61 -8 -64 -11 -4 -3 -22 -3
-40 0 -18 3 -39 2 -46 -3 -6 -5 -81 -10 -165 -11 -86 -1 -162 -6 -173 -12 -11
-6 -45 -11 -77 -11 -167 1 -432 -27 -432 -45 0 -14 -41 -19 -54 -7 -3 4 -29 6
-56 4 -43 -2 -50 0 -50 16 0 16 14 23 72 36 40 10 83 17 96 17 13 0 22 6 22
15 0 18 21 20 38 3 8 -8 15 -8 24 0 13 10 77 17 268 28 58 3 110 10 117 15 6
6 23 7 37 3 22 -5 26 -3 26 15 0 14 6 21 20 21 11 0 20 -7 20 -15 0 -11 12
-15 50 -15 38 0 50 4 50 15 0 11 -12 15 -50 15 -38 0 -50 4 -50 15 0 8 5 15
10 15 6 0 10 16 10 35 0 19 -4 35 -10 35 -5 0 -10 7 -10 15 0 20 -19 19 -27
-1 -4 -11 -13 -13 -34 -9 -28 6 -42 -9 -17 -17 18 -6 -13 -68 -34 -68 -10 0
-18 7 -18 15 0 8 5 15 10 15 6 0 10 9 10 20 0 17 -5 19 -25 14 -21 -5 -25 -3
-25 17 0 18 -3 20 -9 10 -5 -8 -16 -11 -25 -8 -10 4 -19 1 -22 -7 -4 -11 -19
-13 -60 -9 -54 6 -208 -9 -274 -27 -19 -5 -51 -12 -71 -15 -20 -3 -47 -15 -60
-26 -18 -16 -31 -19 -61 -14 -23 4 -38 3 -38 -3 0 -6 -16 -10 -36 -10 -22 0
-40 -7 -48 -17 -6 -9 -28 -18 -48 -20 -34 -3 -69 -18 -95 -41 -9 -9 -6 -14 13
-22 15 -7 24 -8 24 -2 0 6 7 10 16 10 12 0 15 -6 10 -22 -3 -13 -6 -33 -6 -45
0 -16 -10 -27 -33 -38 -44 -20 -190 -114 -199 -128 -14 -22 2 -19 36 7 19 14
41 26 49 26 8 0 25 8 38 18 13 10 43 24 66 31 24 6 43 16 43 21 0 15 26 12 40
-5 16 -19 3 -55 -20 -55 -10 0 -22 -5 -25 -10 -3 -6 1 -10 9 -10 9 0 16 -7 16
-15 0 -13 -7 -15 -35 -9 -42 7 -85 -16 -85 -46 0 -22 -25 -27 -33 -7 -4 10 -6
10 -6 0 -1 -7 -7 -13 -14 -13 -9 0 -12 -10 -9 -30 3 -23 0 -30 -12 -30 -10 0
-16 9 -16 24 0 19 -4 23 -20 19 -15 -4 -20 -14 -20 -42 0 -28 -7 -44 -30 -66
-17 -16 -30 -36 -30 -44 0 -9 -10 -27 -23 -41 -17 -19 -22 -35 -20 -67 2 -24
-2 -43 -7 -43 -6 0 -10 -20 -10 -45 0 -41 -4 -48 -30 -63 -28 -16 -38 -45 -31
-86 4 -21 -12 -46 -30 -46 -10 0 -19 -4 -19 -8 0 -5 -11 -22 -25 -38 -14 -16
-25 -31 -25 -34 1 -35 90 -34 90 1 0 11 7 19 15 19 8 0 15 -7 15 -15 0 -26 39
6 45 37 4 16 13 28 22 28 11 0 14 -6 10 -21 -5 -19 -4 -19 11 -6 16 13 93 36
250 74 34 8 62 19 62 24 0 5 18 9 40 9 21 0 43 6 47 13 9 15 113 38 192 42 29
2 58 8 64 14 15 15 47 14 47 -2 0 -10 27 -9 128 4 70 10 137 20 148 24 12 4
25 2 28 -3 7 -12 59 -1 118 25 34 14 38 14 54 -1 13 -14 27 -16 68 -11 71 9
126 24 126 34 0 5 33 7 72 4 139 -10 208 -6 249 13 21 11 39 25 39 32 0 6 7
12 15 12 18 0 20 -26 3 -34 -7 -4 15 -4 50 -1 47 3 62 1 62 -8 0 -14 -60 -47
-85 -47 -8 0 -30 -8 -49 -17 -26 -13 -36 -25 -36 -42 0 -22 1 -23 18 -9 9 9
43 22 75 29 31 6 57 16 57 21 0 5 17 8 38 6 32 -3 37 0 40 20 4 24 32 31 32 7
0 -11 7 -13 29 -9 28 6 30 4 37 -30 6 -35 7 -36 29 -22 12 8 40 18 61 22 21 3
45 11 51 16 7 6 23 8 35 4 25 -6 99 12 110 28 3 5 33 11 65 12 32 1 66 3 76 3
9 1 17 8 17 17 0 12 6 15 21 11 11 -3 36 1 54 9 19 7 44 14 57 13 13 0 48 3
80 7 74 9 130 -2 126 -24 -2 -10 -18 -19 -42 -24 -22 -5 -46 -13 -53 -20 -7
-6 -45 -12 -84 -14 -91 -3 -376 -52 -413 -70 -16 -8 -42 -14 -57 -14 -15 0
-34 -8 -41 -18 -14 -20 -140 -67 -205 -77 -36 -6 -42 -4 -48 15 l-7 22 -22
-21 c-17 -16 -40 -22 -106 -26 -47 -3 -98 -12 -114 -20 -16 -8 -37 -15 -47
-15 -9 0 -19 -5 -21 -12 -3 -8 -15 -9 -49 -1 -61 15 -249 5 -256 -13 -6 -17
-43 -19 -43 -3 0 8 -20 9 -68 3 -37 -4 -89 -9 -117 -10 -196 -7 -329 -20 -355
-36 -10 -7 -23 -7 -33 -2 -17 10 -135 1 -245 -18 -66 -11 -111 -16 -149 -17
-14 -1 -23 -7 -23 -16 0 -8 -7 -15 -15 -15 -8 0 -15 5 -15 10 0 13 -47 13 -55
0 -3 -5 -17 -10 -30 -10 -13 0 -34 -10 -45 -22 -18 -19 -23 -21 -41 -10 -19
12 -58 8 -69 -7 -11 -15 -80 -41 -109 -41 -18 0 -31 -5 -31 -12 0 -7 -14 -26
-30 -43 -17 -16 -40 -40 -52 -52 -11 -12 -34 -27 -50 -34 -20 -8 -27 -17 -23
-28 22 -57 13 -86 -37 -108 -18 -8 -30 -24 -37 -48 -5 -20 -22 -45 -36 -57
-19 -15 -23 -24 -16 -31 20 -20 12 -47 -16 -58 -34 -13 -63 -43 -63 -65 0 -9
-5 -34 -12 -56 -9 -31 -9 -50 1 -89 12 -46 12 -51 -5 -64 -11 -8 -31 -17 -45
-20 -16 -4 -30 -16 -34 -28 -8 -26 -8 -25 0 -58 5 -21 1 -27 -21 -38 -16 -7
-34 -21 -42 -32 -7 -10 -19 -19 -27 -19 -7 0 -21 -7 -29 -16 -15 -14 -14 -18
4 -44 29 -40 26 -76 -5 -84 -14 -4 -34 -15 -44 -25 -10 -10 -31 -23 -47 -28
-18 -6 -30 -18 -32 -31 -2 -14 -11 -22 -23 -22 -20 0 -26 -24 -8 -36 12 -7 60
15 72 33 11 17 37 16 37 -1 0 -7 3 -28 6 -45 6 -30 6 -31 -30 -31 -29 0 -36
-4 -36 -20 0 -11 -4 -20 -10 -20 -5 0 -10 -20 -10 -44 0 -34 -5 -47 -23 -59
l-22 -16 23 0 c13 -1 22 5 22 14 0 24 27 29 55 11 23 -15 25 -15 25 0 0 14 7
15 45 10 29 -5 45 -4 45 3 0 6 12 11 28 11 55 0 72 10 65 38 -5 23 -4 24 18
19 18 -5 29 0 46 20 22 24 27 26 88 20 54 -5 65 -4 65 9 0 12 11 15 53 13 29
-1 60 2 68 7 16 10 211 32 345 39 50 2 97 6 105 9 8 2 43 7 78 10 36 3 67 9
70 14 3 4 44 8 91 10 46 1 89 7 94 12 7 7 6 10 -2 10 -7 0 -12 7 -12 15 0 9
14 16 38 20 20 4 46 11 58 17 11 5 27 9 35 8 8 -1 51 -2 97 -1 63 1 82 4 82
15 0 11 18 13 90 11 57 -2 90 1 90 8 0 6 23 7 67 3 38 -4 79 -7 93 -6 77 6 85
5 88 -12 3 -13 -11 -19 -72 -29 -42 -6 -76 -16 -76 -20 0 -10 59 -3 122 12 21
6 60 7 87 3 43 -6 50 -4 65 17 14 20 19 22 36 11 11 -6 34 -12 51 -12 17 0 37
-7 46 -15 19 -19 33 -11 33 21 0 17 5 24 20 24 11 0 20 -6 20 -13 0 -23 42
-33 84 -19 21 7 47 10 57 7 11 -4 19 -2 19 5 0 6 12 11 28 9 15 -1 35 2 45 6
9 4 23 5 30 2 7 -3 44 -1 82 4 39 5 111 10 161 13 50 2 110 9 132 16 23 6 53
8 67 4 14 -3 33 -2 42 2 18 8 367 35 433 34 19 -1 49 -2 65 -2 17 0 104 5 194
12 125 10 166 10 169 2 6 -20 39 -13 63 13 28 29 37 30 58 11 13 -12 25 -13
61 -5 25 6 60 8 78 5 18 -2 32 0 32 5 0 6 14 7 35 3 25 -4 35 -3 35 6 0 9 14
11 53 6 67 -8 150 -7 157 3 3 4 41 7 85 7 44 0 114 3 155 7 41 3 118 2 170 -3
65 -5 101 -4 115 3 12 7 85 13 175 14 85 2 230 4 322 6 142 2 171 5 188 20 24
21 36 22 43 3 5 -14 20 -15 177 -17 160 -2 169 -1 163 22 -6 23 10 39 39 39
10 0 20 -10 24 -25 7 -29 35 -40 63 -26 11 6 29 11 40 11 16 0 21 6 21 26 0
34 31 29 41 -6 4 -14 7 -19 8 -12 1 17 41 15 41 -3 0 -11 11 -15 48 -14 26 1
39 3 30 6 -10 2 -18 14 -18 25 0 16 5 19 22 14 13 -3 26 -6 29 -6 4 0 9 -9 12
-20 3 -11 12 -20 21 -20 12 0 16 10 16 34 0 44 34 60 59 28 12 -15 23 -19 44
-15 15 3 27 9 27 14 0 10 33 12 43 3 10 -11 236 -7 250 4 17 14 77 13 77 -1 0
-7 7 -4 14 6 13 17 46 24 46 10 0 -9 68 -8 167 1 49 5 65 3 78 -10 12 -12 25
-14 53 -9 64 11 270 9 285 -3 7 -6 18 -8 23 -3 5 5 33 16 62 26 52 17 53 17
71 -4 22 -25 85 -29 107 -6 17 17 60 20 69 5 10 -16 53 -12 63 7 8 14 15 15
53 5 36 -10 46 -9 55 3 15 20 33 19 56 -2 17 -15 18 -15 18 5 0 32 28 27 32
-5 3 -26 4 -26 21 -9 12 12 26 16 42 12 14 -3 37 -9 53 -12 15 -4 30 -12 34
-18 4 -6 9 -4 14 7 8 21 27 22 44 2 16 -19 25 -19 45 1 10 11 24 14 41 10 15
-4 32 -2 41 6 19 16 191 12 211 -4 10 -9 16 -8 22 2 6 10 17 11 46 3 23 -5 55
-6 79 -1 25 6 49 5 63 -2 29 -13 72 -13 72 0 0 6 7 10 15 10 8 0 15 -4 15 -10
0 -5 14 -10 30 -10 17 0 30 4 30 9 0 4 55 6 123 3 170 -7 195 -5 224 18 31 24
53 26 53 3 0 -13 3 -14 11 -6 15 15 4 44 -13 38 -7 -2 -53 -6 -103 -9 -117 -7
-147 5 -143 54 3 33 5 35 36 32 26 -2 40 5 63 28 34 33 80 40 113 15 17 -13
23 -12 57 7 24 13 44 18 56 13 10 -4 33 -7 51 -6 18 2 39 -2 46 -8 10 -8 16
-8 24 2 16 19 370 17 382 -3 8 -12 15 -12 44 -2 20 7 41 10 47 6 18 -11 150
-7 162 5 14 14 47 14 47 1 0 -17 42 -11 56 7 11 16 16 16 35 5 12 -8 45 -14
73 -14 27 1 55 -3 61 -8 5 -4 35 -4 65 1 30 5 72 6 94 2 35 -5 39 -4 33 11 -4
10 -7 24 -7 32 0 8 -7 14 -15 14 -8 0 -15 4 -15 9 0 5 -9 13 -20 16 -29 9 -25
32 7 38 44 8 133 -4 133 -19 0 -14 -27 -44 -39 -44 -5 0 -8 -14 -7 -31 1 -30
2 -31 41 -26 22 3 41 11 43 16 5 16 40 13 49 -3 9 -15 121 -28 129 -14 3 4 39
8 80 8 41 0 83 5 94 12 15 9 24 9 43 -1 19 -10 29 -10 46 -1 12 6 32 8 44 4
32 -10 108 -6 124 8 10 8 20 8 39 -1 32 -14 69 -14 93 1 15 9 22 8 36 -5 19
-20 58 -22 105 -5 24 8 35 8 37 1 3 -8 14 -8 36 -2 18 5 58 7 90 3 47 -5 62
-3 77 11 11 10 26 15 34 12 9 -4 18 -2 21 3 9 14 88 0 101 -18 9 -12 24 -14
69 -9 32 3 66 2 76 -4 13 -6 29 -5 51 5 27 12 29 15 11 15 -12 1 -23 6 -25 11
-2 6 -30 12 -62 13 -43 2 -62 7 -70 19 -13 22 -3 31 31 30 16 -1 75 -1 133 0
146 3 182 2 224 -6 46 -9 49 -35 4 -38 -72 -4 -84 -6 -100 -13 -9 -4 -22 -4
-28 0 -5 3 -10 1 -10 -4 0 -6 -9 -11 -20 -11 -11 0 -20 -3 -20 -7 0 -10 126
-9 168 1 17 4 32 12 32 17 0 16 23 10 46 -12 20 -18 27 -20 51 -11 48 18 91
24 98 12 4 -6 35 -10 73 -9 37 0 114 0 172 0 114 -1 170 2 213 14 21 6 27 4
27 -9 0 -19 26 -22 33 -3 3 9 9 9 28 0 13 -6 36 -14 52 -17 20 -5 27 -12 27
-31 0 -20 -5 -24 -27 -25 -58 0 -133 -12 -133 -21 0 -15 -27 -10 -34 6 -4 11
-11 13 -29 6 -13 -5 -44 -7 -69 -4 -40 5 -47 3 -53 -16 -3 -11 -10 -21 -15
-21 -20 0 -40 13 -40 27 0 13 -8 14 -42 9 -24 -4 -44 -11 -46 -16 -5 -15 -49
-12 -64 4 -11 10 -47 13 -151 13 -75 -1 -137 -5 -137 -9 0 -4 -7 -8 -15 -8 -8
0 -15 6 -15 13 0 9 -2 9 -9 -1 -4 -7 -23 -13 -42 -13 -19 1 -56 -2 -83 -5 -31
-4 -51 -2 -55 5 -9 13 -121 24 -121 12 0 -5 -25 -15 -55 -22 -30 -7 -55 -16
-55 -21 0 -4 -7 -8 -15 -8 -8 0 -15 4 -15 9 0 15 -41 24 -53 12 -17 -17 -36
-13 -62 15 -24 26 -45 25 -45 -2 0 -8 5 -14 10 -14 6 0 10 -5 10 -11 0 -34 84
-56 96 -24 4 8 12 15 20 15 8 0 14 -7 14 -15 0 -8 9 -15 20 -15 11 0 20 -7 20
-15 0 -13 3 -13 25 1 21 14 31 15 51 5 18 -8 31 -8 46 0 20 11 94 8 136 -6 16
-5 22 -3 22 7 0 7 20 24 44 38 38 20 48 22 70 12 14 -6 26 -16 26 -22 0 -5 5
-10 11 -10 7 0 18 -8 25 -17 13 -17 13 -17 14 0 0 11 8 17 24 17 13 0 26 6 28
12 4 10 20 9 71 -3 40 -10 67 -12 67 -6 0 6 19 7 50 3 32 -4 50 -3 50 4 0 13
47 13 52 -1 3 -10 26 -14 135 -24 28 -2 55 -5 60 -7 4 -1 33 2 64 6 49 7 56
11 52 27 -4 14 0 19 16 19 14 0 21 -6 21 -20 0 -22 17 -27 93 -32 33 -2 47 1
47 9 0 8 12 13 29 13 16 0 42 7 57 15 37 19 54 19 54 0 0 -8 -7 -15 -17 -15
-9 0 -13 -3 -9 -7 6 -7 133 -16 234 -16 29 0 58 5 64 11 14 14 134 16 143 2 6
-10 65 -2 79 11 14 12 56 11 56 -1 0 -5 5 -10 10 -10 6 0 10 7 10 15 0 12 14
15 69 15 62 0 93 11 78 27 -3 2 -62 4 -131 4 -107 -1 -126 1 -126 14 0 9 -10
15 -27 16 -153 6 -189 5 -204 -8 -26 -22 -87 -28 -107 -10 -15 13 -22 14 -57
1 -22 -7 -52 -14 -67 -14 -23 0 -28 4 -28 25 0 23 -3 25 -51 25 -49 0 -50 1
-47 27 3 25 8 28 48 32 75 7 141 5 225 -8 93 -15 226 -16 234 -3 3 5 25 13 48
17 32 5 44 3 48 -7 4 -9 25 -14 64 -15 50 -1 60 2 64 18 7 25 37 25 37 0 0
-30 61 -34 129 -10 87 32 91 33 91 16 0 -11 19 -18 67 -27 66 -11 74 -9 86 23
1 4 22 5 46 1 31 -5 45 -13 49 -26 3 -14 10 -17 26 -12 11 4 23 11 24 16 2 5
36 6 78 2 54 -5 82 -3 99 6 20 11 27 11 41 -1 13 -11 18 -11 21 -1 6 16 35 15
59 -3 22 -16 74 -20 74 -5 0 15 19 12 36 -5 16 -16 33 -17 207 -17 60 0 110
-5 113 -10 4 -6 10 -5 15 3 7 11 14 11 41 0 51 -22 161 -26 177 -7 8 9 22 16
32 16 22 0 69 -20 69 -30 0 -4 10 -6 23 -6 15 1 23 -5 25 -20 3 -20 -2 -21
-83 -23 -47 0 -85 2 -85 6 0 5 -61 8 -135 8 -100 0 -136 -3 -140 -12 -5 -15
-41 -17 -50 -3 -3 6 -26 10 -49 10 -33 0 -47 5 -58 21 -14 21 -15 21 -70 5
-67 -19 -95 -20 -100 -4 -3 9 -9 8 -22 -5 -23 -23 -53 -22 -66 3 -10 19 -21
20 -149 20 -124 0 -140 -2 -156 -20 -13 -15 -30 -19 -69 -19 -131 2 -138 1
-134 -23 2 -15 11 -24 26 -26 12 -2 22 -10 22 -18 0 -17 17 -19 23 -1 3 9 11
9 35 0 19 -6 34 -7 38 -2 7 12 54 12 54 -1 0 -15 16 -12 34 5 18 19 24 19 43
-1 10 -9 25 -13 37 -10 12 3 29 6 39 6 11 0 17 8 17 25 0 18 5 25 19 25 11 0
23 -5 27 -11 4 -7 21 -9 44 -5 26 4 40 2 43 -7 3 -7 6 -5 6 6 1 9 8 17 17 17
11 0 15 -6 11 -19 -4 -18 1 -19 87 -17 83 2 92 4 101 24 10 23 24 26 63 16 24
-7 30 -29 10 -37 -8 -3 -6 -6 5 -6 9 -1 17 6 17 14 0 8 7 15 16 15 11 0 15 -6
11 -20 -7 -27 2 -31 84 -37 82 -5 119 1 119 22 0 8 7 15 15 15 8 0 15 -7 15
-15 0 -19 16 -19 24 0 7 20 36 19 53 -2 10 -13 16 -15 19 -5 9 20 34 14 34 -9
0 -16 3 -19 13 -11 9 8 33 8 77 2 96 -14 110 -13 110 8 0 11 11 24 25 30 34
16 45 15 45 -2 0 -9 7 -12 20 -9 14 4 20 0 20 -11 0 -11 9 -16 30 -16 17 0 30
4 30 8 0 12 46 32 73 32 13 0 28 -5 35 -12 9 -9 12 -8 12 5 0 28 30 19 48 -13
16 -29 19 -30 87 -29 39 0 89 -2 113 -6 30 -5 42 -4 42 5 0 8 10 10 33 6 23
-4 40 0 62 14 17 11 47 20 67 20 20 0 49 5 63 12 22 10 28 9 36 -3 8 -12 11
-11 23 4 16 21 46 23 46 2 0 -8 7 -15 15 -15 8 0 15 -6 15 -12 1 -33 16 -41
54 -28 29 9 40 9 52 -1 23 -19 252 -15 298 6 11 5 26 4 37 -3 24 -16 29 -15
29 3 0 16 12 18 48 9 12 -4 22 -12 22 -19 0 -7 14 -15 30 -17 17 -3 30 -1 30
4 0 14 30 9 36 -6 4 -11 10 -11 30 -2 13 6 24 14 24 18 0 4 16 10 35 14 27 5
41 2 55 -11 17 -16 21 -16 34 -2 16 15 99 19 121 6 31 -19 64 -18 89 2 18 14
32 18 48 13 13 -4 33 -7 46 -5 12 1 22 -2 22 -8 0 -6 9 -11 19 -11 11 0 21 -5
23 -12 5 -14 88 -12 102 2 15 15 50 12 106 -9 32 -12 52 -15 56 -9 6 10 62 8
192 -8 36 -5 52 -3 52 5 0 18 41 12 47 -7 10 -41 73 -51 73 -11 0 10 7 19 15
19 8 0 15 -3 15 -7 0 -8 30 -12 83 -13 15 0 27 -3 27 -7 0 -5 33 -8 74 -8 42
-1 80 -6 88 -13 10 -8 56 -11 145 -10 71 0 135 -2 141 -6 18 -11 305 -14 329
-3 15 7 27 7 35 0 17 -14 94 -31 188 -42 63 -7 77 -6 87 6 10 13 17 14 40 5
15 -7 78 -14 138 -17 61 -4 133 -8 160 -10 28 -2 99 -6 159 -9 60 -3 145 -10
188 -16 43 -6 83 -8 88 -5 5 3 28 1 51 -5 23 -6 103 -13 178 -16 75 -2 160 -9
189 -14 29 -5 102 -11 162 -14 92 -4 109 -2 114 11 5 13 17 15 66 10 37 -4 60
-3 60 3 0 14 28 12 32 -2 3 -7 37 -12 99 -14 93 -3 177 -14 212 -29 11 -4 28
-2 42 5 19 10 33 10 67 1 60 -17 188 -28 228 -20 37 8 100 1 100 -12 0 -7 41
-13 166 -25 136 -13 251 -25 329 -35 50 -6 117 -11 149 -10 33 1 62 -3 65 -7
7 -11 171 -23 171 -13 0 4 11 13 25 19 32 15 135 16 135 2 0 -5 8 -10 18 -10
9 0 30 -7 46 -15 15 -8 37 -15 47 -15 10 0 21 -5 24 -10 9 -15 25 -12 25 5 0
20 50 40 70 28 8 -5 26 -6 40 -2 23 6 23 7 -7 8 -25 1 -33 5 -33 20 0 15 10
21 40 26 22 4 40 11 40 17 0 6 17 8 40 6 22 -2 40 0 40 4 0 18 33 6 60 -21 40
-40 58 -45 62 -18 2 17 11 23 36 25 17 2 32 0 32 -5 0 -5 18 -9 40 -9 33 -1
40 2 40 17 0 12 7 19 20 19 14 0 20 -7 20 -21 0 -18 4 -21 29 -16 18 4 42 0
61 -9 22 -12 44 -14 80 -9 27 4 54 4 60 0 6 -4 63 -8 128 -9 64 -2 132 -9 150
-16 32 -12 127 -10 230 6 28 4 42 2 42 -5 0 -6 5 -11 10 -11 6 0 10 7 10 15 0
12 -14 15 -64 15 -76 0 -96 6 -96 29 0 22 51 52 57 34 5 -15 73 -18 73 -3 0
16 30 12 36 -5 8 -19 40 -19 48 0 7 19 35 19 42 0 11 -28 133 -46 202 -31 19
5 38 4 45 -3 15 -12 197 -12 197 0 0 12 34 11 46 -1 11 -11 100 -28 179 -35
223 -17 222 -17 228 4 7 28 47 29 47 1 0 -17 7 -20 44 -20 25 0 48 5 51 10 3
6 15 10 26 10 10 0 19 7 19 15 0 8 7 15 15 15 8 0 15 -7 15 -15 0 -11 7 -14
25 -9 14 3 25 2 25 -4 0 -8 13 -9 71 -3 3 1 4 12 1 26 -3 16 -11 25 -23 25
-11 0 -19 3 -19 8 0 4 -25 7 -55 8 -47 0 -55 -2 -55 -18 0 -11 -7 -18 -20 -18
-11 0 -20 5 -20 10 0 6 -11 8 -25 4 -18 -4 -25 -2 -25 9 0 19 -88 43 -103 28
-8 -8 -4 -11 11 -11 13 0 22 -6 22 -15 0 -8 -9 -15 -20 -15 -11 0 -20 4 -20 8
0 8 -76 33 -145 47 -33 7 -106 14 -201 19 -33 2 -71 9 -83 16 -14 7 -37 9 -57
5 -30 -5 -35 -3 -44 20 -7 18 -17 25 -35 25 -22 0 -25 4 -25 39 0 47 -2 48
-125 56 -119 7 -155 19 -155 50 0 14 9 29 20 35 18 10 107 12 123 3 4 -3 34
-6 65 -8 32 -2 70 -9 85 -14 21 -8 30 -7 42 6 15 14 21 14 68 -1 29 -9 75 -17
102 -17 28 -1 60 -6 73 -10 17 -7 24 -5 29 9 13 35 53 44 53 13 0 -24 19 -38
29 -22 5 8 32 9 99 2 74 -8 97 -7 119 4 35 18 113 17 113 -1 0 -17 65 -19 75
-3 8 12 98 3 127 -12 13 -7 17 -4 20 14 4 30 42 35 61 7 16 -24 52 -28 305
-34 112 -3 122 -2 122 15 0 11 -9 19 -22 21 -28 4 -34 29 -16 68 13 31 38 41
38 15 0 -9 9 -15 23 -15 12 0 30 -9 40 -20 21 -24 85 -28 93 -5 8 19 34 20 34
2 0 -14 21 -26 78 -45 26 -8 32 -8 32 4 0 8 9 14 20 14 11 0 20 -6 20 -12 0
-20 90 -21 112 -1 15 13 23 14 45 4 27 -12 42 -3 43 25 0 14 -121 32 -296 44
-140 10 -160 12 -269 28 -63 10 -81 8 -46 -3 29 -9 26 -32 -5 -39 -30 -8 -57
10 -51 34 3 13 -8 19 -57 29 -33 7 -79 14 -101 15 -22 2 -75 8 -117 14 -43 6
-91 9 -108 6 -18 -4 -30 -2 -30 4 0 5 -9 8 -20 5 -11 -3 -20 0 -20 6 0 6 -16
11 -35 11 -19 0 -35 -4 -35 -10 0 -15 -26 -12 -39 4 -7 8 -20 12 -30 9 -10 -3
-39 2 -64 11 -26 9 -53 13 -62 10 -14 -6 -38 1 -100 26 -49 20 -245 35 -245
18 0 -15 -78 -9 -83 6 -3 8 -22 18 -41 22 -38 7 -42 14 -25 46 8 16 17 19 40
14 16 -3 40 0 54 6 19 8 29 8 47 -4 23 -15 120 -27 280 -34 83 -3 87 -3 90 19
2 14 11 23 26 25 18 3 22 -1 22 -22 0 -14 6 -26 13 -26 58 -3 126 -12 147 -20
14 -6 72 -12 130 -13 58 -2 112 -7 119 -11 7 -5 43 -9 80 -9 36 0 71 -4 77 -8
18 -15 42 0 37 22 -3 10 -10 19 -17 20 -11 1 -23 2 -111 13 -27 3 -86 7 -130
8 -46 1 -88 7 -100 15 -11 7 -41 13 -67 13 -44 0 -48 2 -48 25 0 20 6 25 36
31 24 4 39 3 44 -6 5 -8 18 -10 38 -5 18 3 33 2 37 -4 3 -6 32 -11 63 -12 31
0 89 -5 127 -10 39 -6 97 -11 130 -13 33 -1 70 -5 82 -9 18 -7 22 -5 17 6 -3
9 -13 13 -25 10 -11 -3 -19 0 -19 7 0 7 -8 9 -20 5 -25 -8 -50 10 -50 36 0 20
0 20 135 24 39 1 63 -3 70 -11 6 -8 43 -15 100 -17 50 -3 124 -10 165 -16 75
-11 172 -19 306 -25 38 -2 81 -6 95 -10 13 -3 18 -3 12 0 -22 10 -15 44 8 44
38 0 99 23 99 37 0 7 7 13 15 13 8 0 15 -7 15 -15 0 -24 47 -18 84 10 39 30
56 32 56 6 0 -16 7 -18 53 -16 30 1 64 8 76 15 22 11 22 12 4 25 -10 8 -26 15
-35 15 -11 0 -18 8 -18 19 0 16 9 19 61 20 34 1 67 -4 74 -9 9 -8 15 -8 20 0
9 14 37 13 73 -5 21 -11 69 -17 149 -19 65 -2 118 -5 118 -5 0 -5 118 -13 163
-12 28 1 52 -2 52 -7 0 -5 12 -7 28 -5 29 5 432 -30 615 -53 40 -5 51 -3 62
12 12 17 28 19 134 19 113 0 120 1 123 20 2 11 -5 29 -14 39 -10 11 -18 26
-18 33 0 16 -40 33 -76 33 -13 0 -24 4 -24 9 0 5 -15 12 -34 15 -53 10 -63 66
-12 66 12 0 31 7 42 15 26 20 64 19 80 -2 11 -15 16 -16 33 -5 12 6 34 12 49
12 26 0 28 3 24 30 -6 40 17 61 70 62 80 1 128 -3 133 -11 2 -5 16 -6 30 -3
14 2 31 -1 39 -7 11 -9 19 -9 35 0 15 10 25 10 43 2 41 -21 221 -46 226 -32 2
5 16 9 32 9 15 0 33 7 40 15 17 21 40 19 40 -4 0 -15 13 -21 63 -31 87 -17 97
-20 97 -30 0 -6 11 -5 26 0 14 6 41 10 60 10 31 0 34 2 24 19 -17 33 -11 49
20 56 16 4 34 4 40 0 6 -3 54 -8 108 -10 53 -1 111 -6 127 -10 17 -5 26 -4 22
1 -8 9 -77 26 -176 45 -29 5 -62 14 -72 20 -10 5 -59 18 -109 28 -88 18 -90
18 -90 0 0 -12 -7 -19 -20 -19 -14 0 -20 7 -20 21 0 16 -4 19 -19 14 -11 -3
-36 1 -56 10 -21 8 -48 15 -61 15 -20 0 -24 5 -24 31 0 41 41 80 52 49 2 -5
28 -11 58 -11 30 -1 64 -8 75 -14 28 -17 132 -38 145 -30 6 4 23 2 38 -3 50
-19 102 -24 102 -10 0 7 -9 19 -20 26 -11 7 -20 23 -20 36 0 19 -8 25 -42 34
-24 6 -54 10 -68 9 -22 -2 -25 2 -25 31 0 27 -3 32 -24 32 -13 0 -29 8 -36 17
-14 19 -134 45 -197 43 -36 -1 -38 1 -38 30 0 27 3 30 33 31 33 1 26 3 -91 24
-30 6 -33 9 -30 38 3 31 4 32 58 34 30 1 79 -3 108 -8 59 -12 80 -5 38 10 -26
11 -35 34 -16 46 19 12 10 24 -27 35 -21 6 -47 16 -58 21 -11 5 -72 16 -135
24 -63 8 -140 19 -170 25 -30 5 -75 13 -100 16 -25 4 -49 13 -53 20 -4 8 -15
14 -23 14 -8 0 -33 9 -57 19 -23 11 -51 21 -62 23 -13 2 -21 12 -23 31 -3 24
0 27 27 27 17 0 31 5 31 10 0 6 13 10 28 10 15 0 33 5 40 12 6 6 34 11 61 11
49 -1 50 0 53 31 4 41 41 45 46 5 2 -21 7 -26 23 -22 10 3 19 12 20 19 3 38 1
61 -6 77 -4 10 -4 21 0 25 4 4 51 7 106 7 88 -1 99 1 99 17 0 10 7 18 15 18 8
0 15 -8 15 -19 0 -17 31 -35 54 -32 4 1 24 -3 42 -9 27 -9 40 -8 66 5 30 14
38 14 108 -1 41 -9 89 -22 106 -31 27 -13 70 -16 164 -11 14 0 40 -3 58 -7 26
-6 32 -4 32 9 0 9 -8 16 -20 16 -29 0 -25 34 6 55 14 9 34 15 44 12 13 -3 17
0 13 9 -3 8 -9 14 -14 14 -5 0 -9 7 -9 16 0 11 6 15 20 11 13 -3 20 0 20 9 0
8 7 14 15 14 8 0 15 9 15 20 0 11 5 20 10 20 6 0 10 9 10 20 0 27 37 27 45 0
3 -11 13 -20 21 -20 8 0 14 -4 14 -10 0 -5 17 -9 38 -9 27 1 30 3 12 6 -36 7
-59 31 -66 68 -4 21 -13 35 -25 38 -37 10 -21 34 29 45 l47 10 -62 1 c-36 0
-63 -3 -63 -9 0 -21 -39 -10 -42 12 -4 25 -28 37 -28 14 0 -9 -7 -16 -15 -16
-8 0 -15 9 -15 20 0 13 -7 20 -20 20 -11 0 -20 -7 -20 -15 0 -8 -7 -15 -15
-15 -8 0 -15 6 -15 13 0 23 -90 48 -227 63 -35 4 -63 11 -63 15 0 5 -7 9 -16
9 -13 0 -15 7 -11 35 5 32 4 35 -18 35 -36 0 -55 10 -55 30 0 10 9 22 21 25
31 10 15 18 -20 10 -17 -4 -31 -13 -31 -21 0 -8 -10 -14 -25 -14 -21 0 -25 5
-25 29 0 24 -5 30 -30 35 -16 3 -43 3 -60 0 -29 -6 -30 -5 -30 29 0 29 4 36
25 41 15 4 37 0 54 -8 16 -9 31 -12 34 -9 4 3 40 0 81 -6 71 -12 76 -11 95 8
12 12 21 24 21 27 0 18 -40 33 -85 34 -28 0 -66 5 -85 11 -19 6 -62 14 -95 17
-56 7 -60 9 -60 32 0 20 5 25 27 25 15 1 35 8 45 17 19 16 109 23 118 8 3 -5
21 -6 40 -3 23 4 35 2 35 -6 0 -6 14 -11 30 -11 17 0 30 5 30 10 0 17 58 12
62 -6 2 -11 17 -17 53 -20 28 -2 62 -6 78 -10 20 -4 27 -2 27 10 0 9 7 16 15
16 8 0 15 -7 15 -15 0 -13 3 -13 20 -3 15 10 22 10 32 0 18 -18 88 -16 88 3 0
8 7 15 15 15 8 0 15 -7 15 -15 0 -9 9 -15 25 -15 14 0 25 -4 25 -10 0 -6 9 -6
24 0 13 5 38 8 55 8 38 -1 45 4 37 30 -5 14 -13 18 -26 15 -11 -3 -26 0 -34 6
-16 14 -114 31 -133 24 -7 -3 -13 -11 -13 -19 0 -8 -9 -14 -20 -14 -21 0 -28
26 -9 32 6 2 0 9 -15 16 -15 7 -26 8 -26 2 0 -6 -7 -10 -15 -10 -8 0 -15 -7
-15 -15 0 -8 -7 -15 -15 -15 -8 0 -15 4 -15 9 0 5 -9 13 -20 16 -11 3 -20 13
-20 20 0 10 -17 17 -50 21 -36 5 -51 12 -55 25 -9 27 2 39 36 39 22 0 29 5 29
20 0 30 38 26 50 -5 8 -20 16 -25 44 -25 19 0 37 -4 40 -9 5 -8 59 -13 278
-27 80 -6 99 -4 112 9 9 9 16 21 16 28 0 8 14 10 50 5 39 -5 50 -4 50 7 0 10
-18 16 -57 21 -32 3 -80 11 -108 16 -80 15 -121 20 -107 14 6 -3 12 -21 12
-40 0 -45 -26 -46 -34 -1 -4 22 -15 36 -34 45 -37 19 -162 29 -162 13 0 -6 -7
-11 -15 -11 -8 0 -15 7 -15 15 0 14 -20 20 -44 16 -6 -1 -19 2 -30 7 -60 28
-88 34 -136 27 -42 -6 -50 -4 -50 9 0 9 -7 16 -15 16 -8 0 -15 7 -15 15 0 8
-6 15 -12 16 -7 0 -24 2 -38 4 -14 2 -61 7 -105 11 -44 3 -85 11 -92 16 -6 5
-23 6 -37 2 -21 -5 -26 -3 -26 14 0 15 -5 18 -24 15 -18 -4 -25 1 -31 19 l-8
23 -4 -22 c-2 -13 -11 -23 -19 -23 -8 0 -14 -4 -14 -10 0 -5 -7 -10 -16 -10
-17 0 -44 57 -44 95 0 22 -4 25 -33 25 -18 0 -56 6 -83 14 -27 8 -86 18 -131
22 -46 3 -83 10 -83 13 0 4 -32 4 -70 -1 -53 -6 -82 -5 -113 6 -40 13 -98 21
-232 31 -33 3 -96 10 -140 16 -44 6 -96 11 -115 11 -53 -1 -70 44 -25 68 14 7
25 19 25 27 0 7 5 13 10 13 6 0 10 7 10 15 0 19 56 21 63 3 3 -8 6 -5 6 6 1
13 6 17 20 13 13 -3 21 1 24 15 7 27 41 19 45 -10 2 -12 -4 -30 -13 -39 -14
-14 -20 -14 -37 -4 -23 14 -25 13 -30 -14 -3 -18 2 -20 35 -17 22 2 48 -3 61
-12 15 -9 28 -11 37 -5 8 5 27 9 42 9 17 0 30 7 34 18 8 20 33 41 51 42 6 0
22 -10 34 -22 19 -19 22 -20 33 -5 14 19 40 22 50 7 12 -20 35 -10 35 15 0 16
6 25 15 25 9 0 15 -9 15 -25 0 -18 5 -25 20 -25 11 0 20 5 20 10 0 6 7 10 15
10 8 0 15 -4 15 -10 0 -5 7 -10 15 -10 8 0 15 -4 15 -9 0 -12 82 -23 193 -26
45 -1 91 -4 102 -6 13 -3 23 4 30 19 9 21 45 32 45 13 0 -5 12 -12 27 -16 15
-3 31 -11 35 -17 6 -11 76 -13 86 -3 3 3 -4 12 -15 20 -11 8 -24 30 -27 49 -7
37 -22 48 -55 39 -16 -4 -19 -11 -15 -29 5 -18 2 -24 -9 -24 -9 0 -18 8 -20
18 -4 16 -5 16 -6 0 -1 -22 -31 -24 -31 -3 0 8 4 15 9 15 5 0 11 9 14 20 4 16
0 20 -21 19 -15 0 -21 -3 -14 -6 15 -6 16 -33 1 -33 -7 0 -19 8 -28 18 -25 28
-84 40 -224 48 -92 5 -133 11 -143 22 -10 10 -26 12 -49 8 -112 -19 -105 -20
-105 3 0 20 -18 27 -57 22 -7 -1 -22 3 -33 9 -13 7 -20 7 -20 0 0 -5 -7 -10
-15 -10 -9 0 -15 9 -15 23 0 18 -6 22 -37 24 -26 1 -42 -4 -54 -18 -9 -11 -36
-22 -63 -25 -38 -6 -46 -4 -46 10 0 11 9 16 30 16 17 0 30 4 30 9 0 5 9 13 20
16 11 3 20 12 20 20 0 7 10 15 23 18 12 3 32 9 45 12 16 6 22 3 22 -9 0 -9 7
-16 15 -16 8 0 15 4 15 9 0 19 -31 32 -82 35 -29 2 -88 7 -130 11 -56 6 -78 5
-78 -4 0 -6 -7 -11 -15 -11 -8 0 -15 6 -15 14 0 8 -17 16 -42 20 -44 7 -242
25 -333 29 -27 2 -58 7 -68 11 -9 5 -29 5 -43 2 -15 -4 -32 -2 -40 5 -9 7 -37
10 -76 7 -44 -3 -70 -1 -85 9 -22 15 -63 10 -63 -8 0 -5 -9 -9 -20 -9 -11 0
-20 6 -20 14 0 19 -112 35 -118 17 -5 -16 -42 -14 -42 4 0 9 -6 12 -16 8 -9
-3 -19 -1 -23 4 -6 10 -249 33 -265 25 -5 -3 -1 -11 8 -18 19 -14 14 -54 -7
-54 -24 0 -40 18 -35 38 3 11 2 25 -1 31 -9 14 -171 24 -171 10 0 -15 -28 -10
-38 7 -7 13 -18 15 -46 10 -20 -4 -36 -11 -36 -16 0 -6 -7 -10 -15 -10 -8 0
-15 6 -15 14 0 7 -12 16 -27 19 -16 3 -47 10 -70 15 -43 9 -63 1 -63 -25 0
-21 -24 -15 -35 9 -9 19 -18 22 -85 24 -41 1 -69 0 -62 -3 6 -3 12 -11 12 -19
0 -8 7 -14 15 -14 8 0 15 -6 15 -14 0 -8 7 -16 15 -20 8 -3 15 -1 15 5 0 7 11
9 28 5 15 -3 21 -3 15 0 -16 7 -17 34 -2 34 6 0 17 -7 25 -15 9 -8 26 -15 39
-15 14 0 25 -7 28 -17 4 -15 5 -15 6 -2 1 12 12 16 46 17 43 0 45 -1 43 -26
-2 -15 2 -26 7 -26 6 1 31 5 58 8 46 7 47 6 47 -18 0 -17 -6 -27 -17 -28 -10
-1 -34 -3 -53 -4 -19 -2 -46 -4 -60 -6 -21 -3 -25 1 -25 24 -1 30 -20 56 -32
44 -4 -4 -1 -11 6 -15 28 -18 5 -36 -47 -38 -29 -1 -52 2 -52 5 0 9 -117 7
-152 -3 -17 -4 -28 -3 -28 3 0 6 -9 8 -19 5 -10 -3 -30 2 -42 10 -28 18 -67
23 -93 12 -11 -5 -26 -3 -37 3 -23 15 -66 16 -74 2 -11 -17 -55 -12 -55 6 0
15 -9 16 -63 11 -55 -5 -66 -3 -80 14 -22 25 -21 39 2 39 14 0 17 6 14 24 -4
19 0 25 22 30 35 9 45 1 46 -37 1 -22 3 -25 6 -12 3 11 9 22 13 25 4 3 5 19 3
35 -4 29 -6 30 -56 28 -29 -1 -59 0 -67 4 -35 14 -117 13 -130 -2 -18 -22 -61
-19 -67 4 -4 14 -20 21 -76 29 -40 5 -85 10 -102 10 -27 0 -157 7 -285 15 -25
1 -53 -2 -63 -8 -14 -8 -21 -6 -31 7 -10 13 -36 18 -127 23 -63 3 -135 9 -161
14 -38 6 -48 5 -48 -6 0 -18 -26 -17 -34 2 -3 10 -19 15 -46 15 -29 0 -40 -4
-40 -15 0 -8 -9 -15 -20 -15 -25 0 -27 30 -2 31 14 0 13 2 -4 9 -12 4 -63 5
-115 0 -55 -4 -96 -4 -100 2 -3 5 -29 6 -59 3 -29 -3 -58 -1 -64 4 -6 5 -60
12 -121 16 -67 4 -113 11 -117 18 -6 9 -8 9 -8 0 0 -7 -7 -13 -15 -13 -8 0
-15 4 -15 9 0 15 -32 22 -45 11 -8 -6 -36 -8 -69 -5 -45 4 -58 2 -62 -10 -7
-17 -34 -21 -34 -4 0 7 -14 8 -40 4 -26 -4 -40 -3 -40 4 0 6 -10 11 -23 11
-13 0 -28 5 -34 11 -7 7 -40 11 -77 11 -53 -1 -66 2 -66 14 0 14 -2 14 -16 0
-21 -22 -94 -18 -117 5 -19 21 -37 25 -37 9 0 -14 -75 -2 -124 20 -36 16 -45
16 -85 4 -80 -25 -89 -26 -107 -16 -12 7 -24 6 -36 -2 -16 -9 -22 -8 -32 7
-10 12 -27 17 -63 17 -28 0 -63 7 -79 15 -16 8 -31 11 -34 6 -3 -4 -29 -8 -58
-8 -29 0 -58 -5 -65 -10 -17 -13 -144 -16 -152 -3 -3 5 -16 10 -28 10 -13 0
-32 7 -44 15 -16 11 -34 14 -63 9 -27 -4 -50 -2 -65 6 -20 11 -32 11 -64 0
-23 -7 -51 -10 -68 -5 -41 11 -106 12 -120 2 -6 -5 -20 -7 -30 -6 -10 2 -29
-1 -42 -5 -18 -6 -26 -4 -33 8 -8 15 -12 15 -38 -4 -30 -22 -50 -25 -65 -11
-18 15 -99 31 -109 21 -16 -16 -36 -11 -36 8 0 14 -8 18 -32 18 -18 0 -45 3
-60 7 -22 6 -28 4 -28 -8 0 -11 -11 -15 -40 -15 -29 0 -40 4 -40 15 0 18 -32
20 -61 3 -17 -10 -23 -10 -26 0 -3 6 -13 12 -23 12 -10 0 -22 4 -25 10 -4 6
-17 4 -35 -5 -37 -19 -56 -19 -120 2 -49 16 -53 16 -65 0 -15 -21 -25 -21 -39
-1 -15 20 -92 26 -107 8 -13 -16 -36 -18 -41 -5 -1 4 -22 11 -46 14 -32 4 -45
2 -49 -9 -6 -16 -43 -19 -43 -4 0 15 -47 12 -64 -5 -21 -21 -37 -18 -68 13
-24 25 -32 27 -85 24 -110 -8 -120 -9 -132 -16 -6 -4 -21 -6 -34 -5 -26 3 -67
-20 -67 -38 0 -7 -7 -13 -16 -13 -11 0 -15 6 -11 20 3 11 1 23 -4 26 -5 3 -9
-2 -9 -10 0 -10 -9 -16 -24 -16 -19 0 -25 6 -28 28 -3 24 -8 28 -48 33 -33 5
-47 3 -53 -7 -11 -19 -37 -18 -37 2 0 11 -6 13 -20 9 -10 -3 -28 -1 -39 4 -13
7 -22 8 -26 1 -9 -15 -87 -11 -109 5 -10 8 -22 12 -26 10 -4 -2 -38 -7 -75
-10 -38 -2 -72 -10 -75 -15 -4 -6 -41 -13 -83 -16 -61 -4 -82 -1 -102 12 -27
18 -78 22 -109 9 -11 -5 -21 -3 -26 5 -5 8 -9 9 -14 1 -8 -13 -46 -15 -46 -2
0 11 -138 12 -146 0 -10 -16 -60 -10 -84 11 -27 24 -25 23 -49 8 -14 -8 -26
-9 -43 -2 -29 13 -58 7 -58 -12 0 -16 -22 -19 -130 -14 -41 1 -78 7 -81 12
-11 17 -81 -3 -87 -24 -7 -30 -37 -17 -35 15 1 22 -2 27 -23 27 -13 0 -24 5
-24 10 0 21 -18 9 -24 -16 -6 -22 -11 -25 -34 -21 -93 20 -127 24 -130 16 -6
-15 -32 -10 -32 6 0 8 -9 15 -20 15 -11 0 -20 4 -20 10 0 5 -17 8 -37 7 -34
-2 -38 0 -38 23 0 24 -11 40 -27 40 -5 0 -8 -9 -8 -20z m-2470 -135 c0 -8 -7
-15 -15 -15 -8 0 -15 7 -15 15 0 8 7 15 15 15 8 0 15 -7 15 -15z m-60 -10 c0
-8 -9 -15 -20 -15 -11 0 -20 7 -20 15 0 8 9 15 20 15 11 0 20 -7 20 -15z m440
0 c0 -8 -7 -15 -15 -15 -8 0 -15 7 -15 15 0 8 7 15 15 15 8 0 15 -7 15 -15z
m2350 0 c0 -8 -9 -15 -20 -15 -11 0 -20 7 -20 15 0 8 9 15 20 15 11 0 20 -7
20 -15z m-1180 -15 c0 -11 -7 -20 -15 -20 -8 0 -15 9 -15 20 0 11 7 20 15 20
8 0 15 -9 15 -20z m2480 5 c0 -8 -7 -15 -15 -15 -8 0 -15 7 -15 15 0 8 7 15
15 15 8 0 15 -7 15 -15z m-2000 -10 c0 -8 -7 -15 -15 -15 -8 0 -15 7 -15 15 0
8 7 15 15 15 8 0 15 -7 15 -15z m480 -25 c0 -11 -7 -20 -15 -20 -8 0 -15 9
-15 20 0 11 7 20 15 20 8 0 15 -9 15 -20z m1630 10 c0 -5 7 -10 15 -10 8 0 15
-7 15 -15 0 -8 -7 -15 -15 -15 -8 0 -15 5 -15 10 0 6 -7 10 -15 10 -8 0 -15 7
-15 15 0 8 7 15 15 15 8 0 15 -4 15 -10z m-3790 -25 c0 -8 -7 -15 -15 -15 -8
0 -15 7 -15 15 0 8 7 15 15 15 8 0 15 -7 15 -15z m450 -5 c0 -15 -7 -20 -25
-20 -24 0 -34 18 -18 33 15 15 43 7 43 -13z m-710 -15 c0 -8 -7 -15 -15 -15
-8 0 -15 7 -15 15 0 8 7 15 15 15 8 0 15 -7 15 -15z m1090 0 c0 -8 -7 -15 -15
-15 -8 0 -15 7 -15 15 0 8 7 15 15 15 8 0 15 -7 15 -15z m2458 -7 c-5 -34 -38
-37 -38 -4 0 20 5 26 21 26 15 0 20 -5 17 -22z m1222 7 c0 -8 -6 -15 -14 -15
-8 0 -16 -5 -18 -12 -6 -16 -38 -2 -38 16 0 13 17 20 58 25 6 0 12 -6 12 -14z
m1080 0 c0 -8 -7 -15 -15 -15 -8 0 -15 7 -15 15 0 8 7 15 15 15 8 0 15 -7 15
-15z m-6592 -28 c3 -22 -1 -27 -17 -27 -17 0 -21 6 -21 31 0 24 4 30 18 27 10
-2 18 -14 20 -31z m952 13 c0 -24 -26 -38 -42 -22 -16 16 -2 42 22 42 13 0 20
-7 20 -20z m-2605 -22 l-6 -33 58 2 c32 1 79 4 104 7 82 11 151 -33 77 -48
-18 -4 -150 -9 -293 -12 -143 -2 -281 -6 -308 -9 -38 -5 -49 -2 -54 10 -11 29
15 39 110 42 50 1 119 5 152 9 33 3 75 6 93 7 26 0 32 5 32 22 0 25 8 35 27
35 10 0 12 -9 8 -32z m7205 12 c0 -11 -7 -20 -15 -20 -8 0 -15 9 -15 20 0 11
7 20 15 20 8 0 15 -9 15 -20z m498 -8 c3 -19 -1 -23 -15 -20 -10 2 -19 14 -21
26 -3 19 1 23 15 20 10 -2 19 -14 21 -26z m-5868 3 c0 -8 -7 -15 -15 -15 -8 0
-15 7 -15 15 0 8 7 15 15 15 8 0 15 -7 15 -15z m450 0 c0 -8 -9 -15 -20 -15
-11 0 -20 7 -20 15 0 8 9 15 20 15 11 0 20 -7 20 -15z m2450 0 c0 -8 -7 -15
-15 -15 -8 0 -15 7 -15 15 0 8 7 15 15 15 8 0 15 -7 15 -15z m980 -5 c0 -11
-7 -20 -15 -20 -8 0 -15 9 -15 20 0 11 7 20 15 20 8 0 15 -9 15 -20z m1670 5
c0 -8 -7 -15 -15 -15 -8 0 -15 7 -15 15 0 8 7 15 15 15 8 0 15 -7 15 -15z
m1610 0 c0 -8 -9 -15 -20 -15 -11 0 -20 7 -20 15 0 8 9 15 20 15 11 0 20 -7
20 -15z m-7677 -5 c11 0 17 -8 17 -21 0 -19 -4 -21 -31 -15 -17 3 -40 6 -50 6
-21 0 -26 25 -6 34 6 3 21 3 32 1 11 -3 28 -5 38 -5z m457 -5 c0 -8 -9 -15
-20 -15 -11 0 -20 7 -20 15 0 8 9 15 20 15 11 0 20 -7 20 -15z m6825 -10 c0
-30 -39 -27 -43 3 -3 20 0 23 20 20 15 -2 23 -10 23 -23z m715 0 c0 -8 -7 -15
-15 -15 -8 0 -15 7 -15 15 0 8 7 15 15 15 8 0 15 -7 15 -15z m50 0 c0 -8 -7
-15 -15 -15 -8 0 -15 7 -15 15 0 8 7 15 15 15 8 0 15 -7 15 -15z m-11660 -15
c0 -11 -7 -20 -15 -20 -8 0 -15 9 -15 20 0 11 7 20 15 20 8 0 15 -9 15 -20z
m3100 0 c0 -11 -7 -20 -15 -20 -8 0 -15 9 -15 20 0 11 7 20 15 20 8 0 15 -9
15 -20z m8040 0 c0 -22 -3 -23 -37 -14 -34 9 -29 34 7 34 23 0 30 -4 30 -20z
m-800 -10 c0 -11 -7 -20 -15 -20 -8 0 -15 9 -15 20 0 11 7 20 15 20 8 0 15 -9
15 -20z m-9930 -5 c0 -8 -7 -15 -15 -15 -8 0 -15 7 -15 15 0 8 7 15 15 15 8 0
15 -7 15 -15z m50 0 c0 -8 5 -15 10 -15 6 0 10 -9 10 -20 0 -11 -7 -20 -15
-20 -8 0 -15 9 -15 20 0 11 -4 20 -10 20 -5 0 -10 7 -10 15 0 8 7 15 15 15 8
0 15 -7 15 -15z m6460 0 c0 -8 -7 -15 -15 -15 -8 0 -15 7 -15 15 0 8 7 15 15
15 8 0 15 -7 15 -15z m2760 0 c0 -8 -7 -15 -15 -15 -8 0 -15 7 -15 15 0 8 7
15 15 15 8 0 15 -7 15 -15z m1820 -15 c0 -11 -7 -20 -15 -20 -8 0 -15 9 -15
20 0 11 7 20 15 20 8 0 15 -9 15 -20z m-6560 -10 c0 -11 -7 -20 -15 -20 -8 0
-15 9 -15 20 0 11 7 20 15 20 8 0 15 -9 15 -20z m240 5 c0 -8 -7 -15 -15 -15
-8 0 -15 7 -15 15 0 8 7 15 15 15 8 0 15 -7 15 -15z m5090 -10 c0 -8 -7 -15
-15 -15 -8 0 -15 7 -15 15 0 8 7 15 15 15 8 0 15 -7 15 -15z m1340 0 c0 -8 -9
-15 -20 -15 -11 0 -20 7 -20 15 0 8 9 15 20 15 11 0 20 -7 20 -15z m-8970 -10
c0 -8 -7 -15 -15 -15 -8 0 -15 7 -15 15 0 8 7 15 15 15 8 0 15 -7 15 -15z
m4320 -10 c0 -8 -7 -15 -15 -15 -8 0 -15 7 -15 15 0 8 7 15 15 15 8 0 15 -7
15 -15z m-5872 -17 c-2 -15 -11 -24 -25 -26 -19 -3 -23 1 -23 22 0 21 5 26 26
26 21 0 25 -4 22 -22z m9682 -3 c0 -8 -7 -15 -15 -15 -8 0 -15 -4 -15 -10 0
-5 -7 -10 -15 -10 -8 0 -15 7 -15 15 0 8 7 15 15 15 8 0 15 5 15 10 0 6 7 10
15 10 8 0 15 -7 15 -15z m-10390 -15 c0 -15 -7 -20 -25 -20 -18 0 -25 5 -25
20 0 15 7 20 25 20 18 0 25 -5 25 -20z m2050 5 c0 -8 -7 -15 -15 -15 -8 0 -15
7 -15 15 0 8 7 15 15 15 8 0 15 -7 15 -15z m7420 0 c0 -8 -7 -15 -15 -15 -8 0
-15 7 -15 15 0 8 7 15 15 15 8 0 15 -7 15 -15z m420 0 c0 -8 -7 -15 -15 -15
-8 0 -15 7 -15 15 0 8 7 15 15 15 8 0 15 -7 15 -15z m-10130 -20 c0 -18 -5
-25 -20 -25 -15 0 -20 7 -20 25 0 18 5 25 20 25 15 0 20 -7 20 -25z m1020 10
c0 -8 -7 -15 -15 -15 -8 0 -15 7 -15 15 0 8 7 15 15 15 8 0 15 -7 15 -15z
m9310 0 c0 -16 -27 -32 -37 -22 -3 4 -3 13 0 22 8 20 37 20 37 0z m2920 -5 c0
-13 -7 -20 -20 -20 -13 0 -20 7 -20 20 0 13 7 20 20 20 13 0 20 -7 20 -20z
m-13090 -4 c0 -17 -37 -46 -58 -46 -19 0 -26 28 -12 45 16 20 70 20 70 1z
m9590 -11 c0 -8 -7 -15 -15 -15 -8 0 -15 7 -15 15 0 8 7 15 15 15 8 0 15 -7
15 -15z m120 0 c0 -8 -7 -15 -15 -15 -8 0 -15 7 -15 15 0 8 7 15 15 15 8 0 15
-7 15 -15z m620 -10 c0 -16 -27 -32 -37 -22 -3 4 -3 13 0 22 8 20 37 20 37 0z
m-7660 -10 c0 -8 -7 -15 -15 -15 -8 0 -15 7 -15 15 0 8 7 15 15 15 8 0 15 -7
15 -15z m7600 0 c0 -8 -7 -15 -15 -15 -8 0 -15 7 -15 15 0 8 7 15 15 15 8 0
15 -7 15 -15z m-2820 -10 c0 -8 -7 -15 -15 -15 -8 0 -15 7 -15 15 0 8 7 15 15
15 8 0 15 -7 15 -15z m2140 -20 c0 -8 -7 -15 -15 -15 -8 0 -15 7 -15 15 0 8 7
15 15 15 8 0 15 -7 15 -15z m4050 0 c0 -8 -7 -15 -15 -15 -8 0 -15 7 -15 15 0
8 7 15 15 15 8 0 15 -7 15 -15z m-13710 -20 c0 -8 -7 -15 -15 -15 -8 0 -15 7
-15 15 0 8 7 15 15 15 8 0 15 -7 15 -15z m390 0 c0 -8 -7 -15 -15 -15 -8 0
-15 7 -15 15 0 8 7 15 15 15 8 0 15 -7 15 -15z m-100 -10 c0 -8 -7 -15 -15
-15 -8 0 -15 7 -15 15 0 8 7 15 15 15 8 0 15 -7 15 -15z m3660 -5 c0 -5 7 -10
15 -10 8 0 15 -7 15 -15 0 -8 -7 -15 -15 -15 -8 0 -15 5 -15 10 0 6 -7 10 -15
10 -8 0 -15 7 -15 15 0 8 7 15 15 15 8 0 15 -4 15 -10z m10120 -15 c0 -27 -36
-58 -59 -50 -25 8 -27 22 -4 47 20 22 63 24 63 3z m-16450 -20 c0 -8 -7 -15
-15 -15 -8 0 -15 7 -15 15 0 8 7 15 15 15 8 0 15 -7 15 -15z m2110 0 c0 -8 -7
-15 -15 -15 -8 0 -15 7 -15 15 0 8 7 15 15 15 8 0 15 -7 15 -15z m13550 0 c0
-8 -7 -15 -15 -15 -8 0 -15 7 -15 15 0 8 7 15 15 15 8 0 15 -7 15 -15z
m-14402 -29 c3 -13 -1 -17 -14 -14 -11 2 -20 11 -22 22 -3 13 1 17 14 14 11
-2 20 -11 22 -22z m14022 9 c0 -8 -7 -15 -15 -15 -8 0 -15 7 -15 15 0 8 7 15
15 15 8 0 15 -7 15 -15z m1440 4 c0 -18 -30 -41 -45 -35 -8 3 -15 15 -15 26 0
16 7 20 30 20 17 0 30 -5 30 -11z m-17770 -14 c0 -8 -9 -15 -20 -15 -11 0 -20
7 -20 15 0 8 9 15 20 15 11 0 20 -7 20 -15z m710 0 c0 -8 -7 -15 -15 -15 -8 0
-15 7 -15 15 0 8 7 15 15 15 8 0 15 -7 15 -15z m17950 0 c0 -8 -7 -15 -15 -15
-8 0 -15 7 -15 15 0 8 7 15 15 15 8 0 15 -7 15 -15z m-9480 -10 c0 -8 -7 -15
-15 -15 -8 0 -15 7 -15 15 0 8 7 15 15 15 8 0 15 -7 15 -15z m7530 -20 c0 -16
-6 -25 -15 -25 -9 0 -15 9 -15 25 0 16 6 25 15 25 9 0 15 -9 15 -25z m-3140 0
c0 -8 -7 -15 -15 -15 -8 0 -15 7 -15 15 0 8 7 15 15 15 8 0 15 -7 15 -15z
m3230 0 c0 -8 -7 -15 -15 -15 -8 0 -15 7 -15 15 0 8 7 15 15 15 8 0 15 -7 15
-15z m280 0 c0 -8 -7 -15 -15 -15 -8 0 -15 7 -15 15 0 8 7 15 15 15 8 0 15 -7
15 -15z m70 -5 c0 -13 -7 -20 -20 -20 -13 0 -20 7 -20 20 0 13 7 20 20 20 13
0 20 -7 20 -20z m-16256 4 c22 -9 20 -34 -3 -34 -11 0 -27 -7 -35 -16 -11 -10
-25 -14 -44 -10 -16 4 -39 0 -56 -9 -15 -8 -32 -15 -36 -15 -16 0 -50 39 -50
57 0 18 7 19 85 18 47 0 91 3 98 7 15 9 21 10 41 2z m126 -14 c0 -11 -7 -20
-15 -20 -8 0 -15 9 -15 20 0 11 7 20 15 20 8 0 15 -9 15 -20z m-360 -14 c0
-29 -17 -37 -64 -29 -30 5 -36 10 -36 29 0 22 4 24 50 24 46 0 50 -2 50 -24z
m16270 4 c0 -11 -7 -20 -15 -20 -8 0 -15 9 -15 20 0 11 7 20 15 20 8 0 15 -9
15 -20z m2000 1 c0 -19 -18 -31 -46 -31 -19 0 -18 20 4 36 25 19 42 17 42 -5z
m54 -3 c5 -10 7 -10 12 0 8 17 44 15 44 -3 0 -8 -7 -15 -15 -15 -8 0 -15 -4
-15 -10 0 -5 -16 -10 -35 -10 -27 0 -35 4 -35 18 0 32 32 46 44 20z m-3274
-33 c0 -8 -9 -15 -20 -15 -11 0 -20 7 -20 15 0 8 9 15 20 15 11 0 20 -7 20
-15z m-13010 -15 c0 -11 -7 -20 -15 -20 -8 0 -15 9 -15 20 0 11 7 20 15 20 8
0 15 -9 15 -20z m12380 -10 c0 -11 -7 -20 -15 -20 -8 0 -15 9 -15 20 0 11 7
20 15 20 8 0 15 -9 15 -20z m4420 0 c0 -11 -7 -20 -15 -20 -8 0 -15 9 -15 20
0 11 7 20 15 20 8 0 15 -9 15 -20z m310 5 c0 -8 -7 -15 -15 -15 -8 0 -15 7
-15 15 0 8 7 15 15 15 8 0 15 -7 15 -15z m-390 -10 c0 -8 -7 -15 -15 -15 -8 0
-15 7 -15 15 0 8 7 15 15 15 8 0 15 -7 15 -15z m580 -20 c0 -8 -7 -15 -15 -15
-8 0 -15 7 -15 15 0 8 7 15 15 15 8 0 15 -7 15 -15z m-130 -13 c0 -22 -72 -52
-78 -33 -2 6 -12 11 -23 11 -10 0 -19 7 -19 15 0 8 9 15 20 15 11 0 20 -5 20
-11 0 -12 43 -1 48 12 7 17 32 9 32 -9z m-2442 -15 c2 -12 -3 -17 -17 -17 -15
0 -21 6 -21 21 0 25 33 22 38 -4z m2762 13 c0 -5 7 -10 15 -10 9 0 15 -9 15
-21 0 -17 -4 -20 -22 -15 -13 3 -26 6 -30 6 -16 0 -8 50 7 50 8 0 15 -4 15
-10z m-1344 -22 c-3 -13 -6 -29 -6 -35 0 -7 -7 -13 -15 -13 -16 0 -18 12 -9
48 4 12 13 22 21 22 11 0 14 -6 9 -22z m84 7 c0 -8 -9 -15 -20 -15 -11 0 -20
7 -20 15 0 8 9 15 20 15 11 0 20 -7 20 -15z m410 0 c0 -8 -7 -15 -15 -15 -8 0
-15 7 -15 15 0 8 7 15 15 15 8 0 15 -7 15 -15z m150 0 c0 -8 -7 -15 -15 -15
-8 0 -15 7 -15 15 0 8 7 15 15 15 8 0 15 -7 15 -15z m-450 -10 c0 -8 -7 -15
-15 -15 -8 0 -15 7 -15 15 0 8 7 15 15 15 8 0 15 -7 15 -15z m590 0 c0 -8 -7
-15 -15 -15 -8 0 -15 -4 -15 -10 0 -5 -7 -10 -15 -10 -8 0 -15 7 -15 15 0 8 7
15 15 15 8 0 15 5 15 10 0 6 7 10 15 10 8 0 15 -7 15 -15z m510 -5 c0 -11 -7
-20 -15 -20 -8 0 -15 9 -15 20 0 11 7 20 15 20 8 0 15 -9 15 -20z m-700 -5 c0
-8 -7 -15 -15 -15 -8 0 -15 7 -15 15 0 8 7 15 15 15 8 0 15 -7 15 -15z m578 9
c12 -4 22 -13 22 -20 0 -8 5 -14 10 -14 6 0 10 -7 10 -15 0 -8 -7 -15 -15 -15
-8 0 -15 5 -15 10 0 6 -11 10 -24 10 -28 0 -40 14 -32 35 6 17 11 17 44 9z
m-1558 -19 c0 -8 -7 -15 -15 -15 -8 0 -15 7 -15 15 0 8 7 15 15 15 8 0 15 -7
15 -15z m1968 -8 c2 -10 -4 -27 -14 -38 -18 -20 -54 -26 -54 -10 0 5 -9 13
-20 16 -28 9 -26 42 3 48 46 9 82 3 85 -16z m-938 -7 c0 -11 -7 -20 -15 -20
-8 0 -15 9 -15 20 0 11 7 20 15 20 8 0 15 -9 15 -20z m-322 -14 c3 -13 -1 -17
-14 -14 -11 2 -20 11 -22 22 -3 13 1 17 14 14 11 -2 20 -11 22 -22z m372 9 c0
-8 -7 -15 -15 -15 -8 0 -15 7 -15 15 0 8 7 15 15 15 8 0 15 -7 15 -15z m300 0
c0 -8 -7 -15 -15 -15 -8 0 -15 7 -15 15 0 8 7 15 15 15 8 0 15 -7 15 -15z
m-1370 -20 c0 -16 -27 -32 -37 -22 -3 4 -3 13 0 22 8 20 37 20 37 0z m1680 0
c0 -8 7 -15 15 -15 8 0 15 -7 15 -15 0 -8 -7 -15 -15 -15 -8 0 -15 7 -15 15 0
8 -7 15 -15 15 -8 0 -15 7 -15 15 0 8 7 15 15 15 8 0 15 -7 15 -15z m-1300
-10 c0 -8 -7 -15 -15 -15 -8 0 -15 7 -15 15 0 8 7 15 15 15 8 0 15 -7 15 -15z
m1060 -20 c0 -10 -10 -15 -30 -15 -20 0 -30 5 -30 15 0 10 10 15 30 15 20 0
30 -5 30 -15z m50 0 c0 -8 -7 -15 -15 -15 -8 0 -15 7 -15 15 0 8 7 15 15 15 8
0 15 -7 15 -15z m-650 -10 c0 -8 -7 -15 -15 -15 -8 0 -15 7 -15 15 0 8 7 15
15 15 8 0 15 -7 15 -15z m-460 -20 c0 -8 -7 -15 -15 -15 -8 0 -15 7 -15 15 0
8 7 15 15 15 8 0 15 -7 15 -15z m-22010 -10 c0 -8 -7 -15 -15 -15 -8 0 -15 7
-15 15 0 8 7 15 15 15 8 0 15 -7 15 -15z m22980 -10 c0 -16 -27 -32 -37 -22
-3 4 -3 13 0 22 8 20 37 20 37 0z m364 -7 c9 -36 7 -48 -9 -48 -8 0 -15 6 -15
13 0 6 -3 22 -6 35 -5 16 -2 22 9 22 8 0 17 -10 21 -22z m-23854 -3 c0 -8 -7
-15 -15 -15 -8 0 -15 7 -15 15 0 8 7 15 15 15 8 0 15 -7 15 -15z m22420 -21
c0 -31 -3 -35 -22 -32 -18 2 -24 11 -26 36 -3 29 -1 32 22 32 23 0 26 -4 26
-36z m40 11 c0 -8 -7 -15 -15 -15 -8 0 -15 7 -15 15 0 8 7 15 15 15 8 0 15 -7
15 -15z m115 5 c4 -6 11 -8 16 -4 5 3 34 2 64 -1 44 -6 55 -11 55 -25 0 -14
-11 -20 -49 -25 -30 -4 -57 -2 -69 4 -12 6 -34 11 -51 11 -32 0 -46 13 -37 35
6 17 61 20 71 5z m-23205 -40 c0 -11 -7 -20 -15 -20 -8 0 -15 -4 -15 -10 0 -5
-7 -10 -15 -10 -8 0 -15 7 -15 15 0 8 7 15 15 15 8 0 15 7 15 15 0 8 7 15 15
15 8 0 15 -9 15 -20z m24610 5 c0 -8 -7 -15 -15 -15 -8 0 -15 7 -15 15 0 8 7
15 15 15 8 0 15 -7 15 -15z m-500 -10 c0 -8 -7 -15 -15 -15 -8 0 -15 7 -15 15
0 8 7 15 15 15 8 0 15 -7 15 -15z m1310 -10 c0 -8 -7 -15 -15 -15 -8 0 -15 7
-15 15 0 8 7 15 15 15 8 0 15 -7 15 -15z m-90 -20 c0 -8 -7 -15 -15 -15 -8 0
-15 7 -15 15 0 8 7 15 15 15 8 0 15 -7 15 -15z m240 0 c0 -8 -7 -15 -15 -15
-8 0 -15 7 -15 15 0 8 7 15 15 15 8 0 15 -7 15 -15z m-24000 -25 c0 -11 -7
-20 -15 -20 -8 0 -15 9 -15 20 0 11 7 20 15 20 8 0 15 -9 15 -20z m-530 -25
c0 -8 -7 -15 -15 -15 -8 0 -15 7 -15 15 0 8 7 15 15 15 8 0 15 -7 15 -15z
m22690 0 c0 -8 -7 -15 -15 -15 -8 0 -15 7 -15 15 0 8 7 15 15 15 8 0 15 -7 15
-15z m50 0 c0 -8 -7 -15 -15 -15 -8 0 -15 7 -15 15 0 8 7 15 15 15 8 0 15 -7
15 -15z m650 -5 c0 -11 -7 -20 -15 -20 -8 0 -15 9 -15 20 0 11 7 20 15 20 8 0
15 -9 15 -20z m-24864 -14 c23 -24 18 -49 -8 -42 -13 3 -26 6 -30 6 -5 0 -8
11 -8 25 0 28 23 34 46 11z m26214 -1 c0 -8 -9 -15 -20 -15 -11 0 -20 7 -20
15 0 8 9 15 20 15 11 0 20 -7 20 -15z m-25800 -10 c0 -8 -7 -15 -15 -15 -8 0
-15 7 -15 15 0 8 7 15 15 15 8 0 15 -7 15 -15z m-540 -20 c0 -8 -4 -15 -10
-15 -5 0 -10 -7 -10 -15 0 -8 -5 -15 -11 -15 -14 0 -39 25 -39 39 0 15 27 14
33 -1 3 -8 6 -6 6 5 1 21 31 23 31 2z m540 -30 c0 -8 -7 -15 -15 -15 -8 0 -15
7 -15 15 0 8 7 15 15 15 8 0 15 -7 15 -15z m-656 -1 c9 -3 16 -15 16 -26 0
-17 -4 -19 -32 -13 -40 9 -42 10 -35 30 7 16 25 19 51 9z m24516 -24 c0 -13
-7 -20 -20 -20 -13 0 -20 7 -20 20 0 13 7 20 20 20 13 0 20 -7 20 -20z
m-24106 -36 c10 -26 7 -34 -14 -34 -15 0 -20 7 -20 25 0 28 24 34 34 9z m-284
-9 c0 -8 -7 -15 -15 -15 -8 0 -15 7 -15 15 0 8 7 15 15 15 8 0 15 -7 15 -15z
m-110 -10 c0 -8 -7 -15 -15 -15 -8 0 -15 7 -15 15 0 8 7 15 15 15 8 0 15 -7
15 -15z m160 -50 c0 -16 -6 -25 -15 -25 -9 0 -15 9 -15 25 0 16 6 25 15 25 9
0 15 -9 15 -25z m24726 -19 c16 -16 19 -36 5 -36 -23 0 -41 14 -41 31 0 23 16
25 36 5z m684 -6 c0 -11 -7 -20 -15 -20 -8 0 -15 9 -15 20 0 11 7 20 15 20 8
0 15 -9 15 -20z m100 -15 c0 -8 -7 -15 -15 -15 -8 0 -15 7 -15 15 0 8 7 15 15
15 8 0 15 -7 15 -15z m160 -10 c0 -8 -7 -15 -15 -15 -8 0 -15 7 -15 15 0 8 7
15 15 15 8 0 15 -7 15 -15z m-26230 -30 c0 -8 -7 -15 -15 -15 -8 0 -15 7 -15
15 0 8 7 15 15 15 8 0 15 -7 15 -15z m108 -33 c3 -17 -2 -22 -17 -22 -16 0
-21 6 -21 26 0 33 33 30 38 -4z m510 19 c23 -14 10 -46 -21 -49 -23 -3 -27 0
-27 21 0 36 19 47 48 28z m23562 -66 c0 -8 -7 -15 -15 -15 -8 0 -15 7 -15 15
0 8 7 15 15 15 8 0 15 -7 15 -15z m2570 -10 c0 -8 -7 -15 -15 -15 -8 0 -15 7
-15 15 0 8 7 15 15 15 8 0 15 -7 15 -15z m-1940 -20 c0 -8 -7 -15 -15 -15 -8
0 -15 7 -15 15 0 8 7 15 15 15 8 0 15 -7 15 -15z m60 0 c0 -8 -9 -15 -20 -15
-11 0 -20 7 -20 15 0 8 9 15 20 15 11 0 20 -7 20 -15z m50 0 c0 -8 -7 -15 -15
-15 -8 0 -15 7 -15 15 0 8 7 15 15 15 8 0 15 -7 15 -15z m2230 0 c0 -8 -7 -15
-15 -15 -8 0 -15 7 -15 15 0 8 7 15 15 15 8 0 15 -7 15 -15z m-2970 -20 c0 -8
-7 -15 -15 -15 -8 0 -15 7 -15 15 0 8 7 15 15 15 8 0 15 -7 15 -15z m2670 -20
c0 -8 -7 -15 -15 -15 -8 0 -15 7 -15 15 0 8 7 15 15 15 8 0 15 -7 15 -15z
m310 -10 c0 -8 -7 -15 -15 -15 -8 0 -15 -9 -15 -20 0 -11 -7 -20 -15 -20 -8 0
-15 9 -15 20 0 11 7 20 15 20 8 0 15 7 15 15 0 8 7 15 15 15 8 0 15 -7 15 -15z
m-1340 -20 c0 -8 -7 -15 -15 -15 -8 0 -15 7 -15 15 0 8 7 15 15 15 8 0 15 -7
15 -15z m971 -7 c0 -10 2 -10 6 0 8 20 39 14 52 -12 22 -40 -16 -67 -38 -28
-9 14 -10 13 -11 -10 0 -21 -5 -28 -20 -28 -11 0 -20 7 -20 15 0 8 -4 15 -10
15 -5 0 -10 -4 -10 -10 0 -5 -6 -10 -14 -10 -13 0 -26 20 -26 41 0 14 28 11
33 -3 3 -7 6 -1 6 15 1 22 6 27 26 27 14 0 25 -6 26 -12z m149 -33 c0 -8 -9
-15 -20 -15 -11 0 -20 7 -20 15 0 8 9 15 20 15 11 0 20 -7 20 -15z m110 -21
c0 -21 -4 -25 -22 -22 -15 2 -24 11 -26 26 -3 18 1 22 22 22 21 0 26 -5 26
-26z m134 10 c25 -10 19 -34 -9 -34 -18 0 -25 5 -25 20 0 21 8 24 34 14z
m-474 -59 c0 -8 -7 -15 -15 -15 -8 0 -15 7 -15 15 0 8 7 15 15 15 8 0 15 -7
15 -15z m573 -32 c8 -47 3 -53 -44 -53 -37 0 -39 2 -39 29 0 21 6 32 20 36 11
3 20 11 20 16 0 5 8 9 19 9 13 0 20 -10 24 -37z m-787 5 c-3 -13 -6 -29 -6
-35 0 -7 -7 -13 -15 -13 -16 0 -18 12 -9 48 4 12 13 22 21 22 11 0 14 -6 9
-22z m-26736 -3 c0 -8 -7 -15 -15 -15 -8 0 -15 7 -15 15 0 8 7 15 15 15 8 0
15 -7 15 -15z m27080 -6 c0 -25 -33 -22 -38 4 -2 12 3 17 17 17 15 0 21 -6 21
-21z m-27080 -44 c0 -8 -7 -15 -15 -15 -8 0 -15 7 -15 15 0 8 7 15 15 15 8 0
15 -7 15 -15z m-900 -25 c0 -11 -7 -20 -15 -20 -8 0 -15 -9 -15 -20 0 -13 -7
-20 -20 -20 -13 0 -20 7 -20 20 0 13 7 20 20 20 13 0 20 7 20 20 0 11 7 20 15
20 8 0 15 -9 15 -20z m26510 -15 c0 -8 -7 -15 -15 -15 -8 0 -15 7 -15 15 0 8
7 15 15 15 8 0 15 -7 15 -15z m1418 -7 c-5 -34 -38 -37 -38 -4 0 20 5 26 21
26 15 0 20 -5 17 -22z m62 -13 c0 -8 -7 -15 -15 -15 -8 0 -15 7 -15 15 0 8 7
15 15 15 8 0 15 -7 15 -15z m-28300 -15 c0 -11 -7 -20 -15 -20 -8 0 -15 9 -15
20 0 11 7 20 15 20 8 0 15 -9 15 -20z m448 3 c-5 -26 -38 -29 -38 -4 0 15 6
21 21 21 14 0 19 -5 17 -17z m-768 -58 c0 -8 -7 -15 -15 -15 -8 0 -15 7 -15
15 0 8 7 15 15 15 8 0 15 -7 15 -15z m790 -5 c0 -11 -7 -20 -15 -20 -8 0 -15
9 -15 20 0 11 7 20 15 20 8 0 15 -9 15 -20z m27470 -5 c0 -8 -7 -15 -15 -15
-8 0 -15 7 -15 15 0 8 7 15 15 15 8 0 15 -7 15 -15z m78 -2 c-5 -26 -38 -29
-38 -4 0 15 6 21 21 21 14 0 19 -5 17 -17z m96 7 c31 -11 35 -40 6 -40 -11 0
-20 5 -20 10 0 6 -7 10 -15 10 -8 0 -15 7 -15 15 0 18 9 19 44 5z m106 -45 c0
-8 -7 -15 -15 -15 -8 0 -15 7 -15 15 0 8 7 15 15 15 8 0 15 -7 15 -15z m90 0
c0 -8 -14 -17 -35 -21 -40 -7 -50 -2 -42 21 8 20 77 21 77 0z m-270 -30 c34
-9 71 -13 96 -9 26 4 44 2 48 -5 4 -6 20 -11 37 -11 19 0 29 -5 29 -14 0 -24
-13 -26 -101 -12 -46 8 -119 13 -162 11 -73 -2 -78 -1 -83 21 -3 13 -3 28 1
33 8 13 61 8 135 -14z m-26910 -10 c0 -16 -6 -25 -15 -25 -9 0 -15 9 -15 25 0
16 6 25 15 25 9 0 15 -9 15 -25z m-1350 -55 c0 -11 -7 -20 -15 -20 -8 0 -15 9
-15 20 0 11 7 20 15 20 8 0 15 -9 15 -20z m40 5 c0 -8 -7 -15 -15 -15 -8 0
-15 7 -15 15 0 8 7 15 15 15 8 0 15 -7 15 -15z m28590 -15 c0 -11 -7 -20 -15
-20 -8 0 -15 9 -15 20 0 11 7 20 15 20 8 0 15 -9 15 -20z m-26770 -10 c0 -11
-7 -20 -15 -20 -8 0 -15 9 -15 20 0 11 7 20 15 20 8 0 15 -9 15 -20z m-1850
-25 c0 -8 -9 -15 -20 -15 -11 0 -20 7 -20 15 0 8 9 15 20 15 11 0 20 -7 20
-15z m1520 -10 c0 -8 -7 -15 -15 -15 -8 0 -15 7 -15 15 0 8 7 15 15 15 8 0 15
-7 15 -15z m0 -50 c0 -8 -7 -15 -15 -15 -8 0 -15 7 -15 15 0 8 7 15 15 15 8 0
15 -7 15 -15z m-1530 -110 c0 -8 -7 -15 -15 -15 -8 0 -15 7 -15 15 0 8 7 15
15 15 8 0 15 -7 15 -15z m29018 -2 c-5 -26 -38 -29 -38 -4 0 15 6 21 21 21 14
0 19 -5 17 -17z m-27738 -38 c0 -8 -7 -15 -15 -15 -8 0 -15 7 -15 15 0 8 7 15
15 15 8 0 15 -7 15 -15z m130 0 c0 -8 -7 -15 -15 -15 -8 0 -15 7 -15 15 0 8 7
15 15 15 8 0 15 -7 15 -15z m-1480 -25 c0 -11 -7 -20 -15 -20 -8 0 -15 9 -15
20 0 11 7 20 15 20 8 0 15 -9 15 -20z m29330 5 c0 -8 -7 -15 -15 -15 -8 0 -15
-7 -15 -15 0 -8 -7 -15 -15 -15 -8 0 -15 7 -15 15 0 8 7 15 15 15 8 0 15 7 15
15 0 8 7 15 15 15 8 0 15 -7 15 -15z m-29500 -30 c0 -16 -6 -25 -15 -25 -9 0
-15 9 -15 25 0 16 6 25 15 25 9 0 15 -9 15 -25z m24230 -5 c0 -11 -7 -20 -15
-20 -8 0 -15 9 -15 20 0 11 7 20 15 20 8 0 15 -9 15 -20z m-24270 -16 c0 -33
-33 -30 -38 4 -3 17 2 22 17 22 16 0 21 -6 21 -26z m29490 -29 c0 -8 -7 -15
-15 -15 -8 0 -15 7 -15 15 0 8 7 15 15 15 8 0 15 -7 15 -15z m-29570 -11 c0
-20 -24 -44 -44 -44 -16 0 -31 34 -21 50 10 17 65 12 65 -6z m26840 1 c0 -8
-7 -15 -15 -15 -8 0 -15 7 -15 15 0 8 7 15 15 15 8 0 15 -7 15 -15z m2577 -25
c2 -14 -4 -34 -12 -44 -12 -16 -20 -18 -43 -10 -34 12 -42 49 -13 59 12 3 21
11 21 16 0 6 10 9 23 7 15 -2 23 -11 24 -28z m-29329 -32 c-6 -42 -67 -33 -68
10 0 7 14 12 36 12 31 0 35 -3 32 -22z m592 -23 c0 -8 -7 -15 -15 -15 -8 0
-15 7 -15 15 0 8 7 15 15 15 8 0 15 -7 15 -15z m28408 9 c17 -5 22 -14 22 -40
0 -19 -3 -34 -7 -34 -5 0 -18 -3 -30 -6 -19 -5 -23 -2 -23 15 0 11 -4 21 -10
21 -11 0 -14 33 -3 43 8 8 21 9 51 1z m-148 -19 c0 -8 -7 -15 -15 -15 -8 0
-15 7 -15 15 0 8 7 15 15 15 8 0 15 -7 15 -15z m-27690 -55 c0 -20 -5 -30 -15
-30 -10 0 -15 10 -15 30 0 20 5 30 15 30 10 0 15 -10 15 -30z m28020 5 c0 -8
-7 -15 -15 -15 -8 0 -15 7 -15 15 0 8 7 15 15 15 8 0 15 -7 15 -15z m-1290
-40 c0 -8 -7 -15 -15 -15 -8 0 -15 7 -15 15 0 8 7 15 15 15 8 0 15 -7 15 -15z
m418 -57 c-2 -15 -11 -24 -25 -26 -19 -3 -23 1 -23 22 0 21 5 26 26 26 21 0
25 -4 22 -22z m98 -3 c8 -34 0 -41 -31 -27 -34 16 -34 52 0 52 18 0 26 -7 31
-25z m-28556 -50 c0 -8 -7 -15 -15 -15 -8 0 -15 7 -15 15 0 8 7 15 15 15 8 0
15 -7 15 -15z m-190 -120 c0 -8 -9 -15 -20 -15 -11 0 -20 7 -20 15 0 8 9 15
20 15 11 0 20 -7 20 -15z m630 0 c0 -8 -7 -15 -15 -15 -8 0 -15 7 -15 15 0 8
7 15 15 15 8 0 15 -7 15 -15z m330 -20 c0 -8 -7 -15 -15 -15 -8 0 -15 7 -15
15 0 8 7 15 15 15 8 0 15 -7 15 -15z m510 -15 c0 -11 -7 -20 -15 -20 -8 0 -15
9 -15 20 0 11 7 20 15 20 8 0 15 -9 15 -20z m-840 -15 c0 -8 -7 -15 -15 -15
-8 0 -15 7 -15 15 0 8 7 15 15 15 8 0 15 -7 15 -15z m210 -10 c0 -28 -24 -34
-34 -9 -10 26 -7 34 14 34 15 0 20 -7 20 -25z m27890 10 c0 -8 -7 -15 -15 -15
-8 0 -15 7 -15 15 0 8 7 15 15 15 8 0 15 -7 15 -15z m-28650 -35 c0 -11 -7
-20 -15 -20 -8 0 -15 9 -15 20 0 11 7 20 15 20 8 0 15 -9 15 -20z m28780 -25
c0 -8 -7 -15 -15 -15 -8 0 -15 7 -15 15 0 8 7 15 15 15 8 0 15 -7 15 -15z
m-27900 -20 c0 -8 -7 -15 -15 -15 -8 0 -15 7 -15 15 0 8 7 15 15 15 8 0 15 -7
15 -15z m1928 -17 c-2 -16 -12 -24 -38 -30 -44 -9 -72 -1 -68 20 3 16 37 28
86 31 19 1 23 -3 20 -21z m25762 -23 c0 -8 -7 -15 -15 -15 -8 0 -15 7 -15 15
0 8 7 15 15 15 8 0 15 -7 15 -15z m-27390 -10 c0 -8 -7 -15 -15 -15 -8 0 -15
7 -15 15 0 8 7 15 15 15 8 0 15 -7 15 -15z m-510 -80 c0 -8 -7 -15 -15 -15 -8
0 -15 7 -15 15 0 8 7 15 15 15 8 0 15 -7 15 -15z m50 0 c0 -8 -7 -15 -15 -15
-8 0 -15 7 -15 15 0 8 7 15 15 15 8 0 15 -7 15 -15z m28310 -80 c0 -8 -7 -15
-15 -15 -8 0 -15 7 -15 15 0 8 7 15 15 15 8 0 15 -7 15 -15z m21 -53 c30 -25
20 -55 -18 -50 -23 2 -29 8 -31 36 -4 37 13 42 49 14z m164 -32 c9 -30 -2 -40
-46 -40 -26 0 -42 5 -45 15 -4 8 -12 15 -20 15 -8 0 -14 6 -14 14 0 10 16 14
59 15 51 1 61 -2 66 -19z m-27765 -55 c0 -8 -7 -15 -15 -15 -8 0 -15 7 -15 15
0 8 7 15 15 15 8 0 15 -7 15 -15z m-1810 -15 c0 -11 -7 -20 -15 -20 -8 0 -15
9 -15 20 0 11 7 20 15 20 8 0 15 -9 15 -20z m1810 -35 c0 -8 -7 -15 -15 -15
-8 0 -15 7 -15 15 0 8 7 15 15 15 8 0 15 -7 15 -15z m-790 -20 c0 -8 -7 -15
-15 -15 -8 0 -15 7 -15 15 0 8 7 15 15 15 8 0 15 -7 15 -15z m650 -61 c0 -8
-12 -19 -26 -24 -42 -16 -85 -50 -94 -75 -8 -20 -19 -24 -74 -30 -36 -4 -66
-10 -66 -14 0 -4 -41 -13 -91 -21 -68 -10 -93 -10 -102 -1 -6 6 -23 11 -37 11
-30 0 -50 16 -50 41 0 12 -9 19 -27 21 -18 2 -29 10 -31 22 -5 22 14 36 48 36
15 0 31 5 37 11 6 6 49 12 96 14 126 6 230 15 235 20 3 2 44 4 93 4 72 0 89
-3 89 -15z m139 -10 c2 -2 1 -10 -2 -19 -4 -10 -20 -15 -47 -15 -22 0 -40 -4
-40 -10 0 -5 -7 -10 -15 -10 -15 0 -20 26 -9 54 5 13 16 15 58 10 28 -4 53 -8
55 -10z m27561 -37 c0 -7 9 -18 20 -25 28 -17 26 -42 -5 -42 -18 0 -25 5 -25
20 0 11 -4 20 -10 20 -5 0 -10 9 -10 20 0 11 7 20 15 20 8 0 15 -6 15 -13z
m-620 -102 c0 -25 -23 -35 -35 -15 -10 16 2 40 20 40 9 0 15 -9 15 -25z m1010
10 c0 -8 -7 -15 -15 -15 -8 0 -15 7 -15 15 0 8 7 15 15 15 8 0 15 -7 15 -15z
m-2150 -20 c0 -8 -7 -15 -15 -15 -8 0 -15 7 -15 15 0 8 7 15 15 15 8 0 15 -7
15 -15z m50 0 c0 -8 -7 -15 -15 -15 -8 0 -15 7 -15 15 0 8 7 15 15 15 8 0 15
-7 15 -15z m2150 -25 c0 -11 -7 -20 -15 -20 -8 0 -15 9 -15 20 0 11 7 20 15
20 8 0 15 -9 15 -20z m-28980 -25 c0 -8 -7 -15 -15 -15 -8 0 -15 7 -15 15 0 8
7 15 15 15 8 0 15 -7 15 -15z m320 0 c0 -8 -7 -15 -15 -15 -8 0 -15 7 -15 15
0 8 7 15 15 15 8 0 15 -7 15 -15z m27289 -11 c25 -5 31 -11 29 -28 -2 -11 -12
-22 -23 -25 -11 -2 -23 -8 -27 -15 -5 -8 -13 -8 -28 2 -11 6 -27 12 -35 12
-18 0 -20 31 -3 48 13 13 40 15 87 6z m-27609 -39 c0 -8 -7 -15 -15 -15 -8 0
-15 7 -15 15 0 8 7 15 15 15 8 0 15 -7 15 -15z m-260 -40 c0 -8 -7 -15 -15
-15 -8 0 -15 7 -15 15 0 8 7 15 15 15 8 0 15 -7 15 -15z m24660 -121 c0 -22
-4 -25 -27 -22 -20 2 -29 9 -31 26 -3 19 1 22 27 22 27 0 31 -4 31 -26z
m-24080 -29 c0 -8 -7 -15 -15 -15 -8 0 -15 7 -15 15 0 8 7 15 15 15 8 0 15 -7
15 -15z m25730 -10 c0 -8 -7 -15 -15 -15 -8 0 -15 7 -15 15 0 8 7 15 15 15 8
0 15 -7 15 -15z m-25730 -40 c0 -8 -7 -15 -15 -15 -8 0 -15 7 -15 15 0 8 7 15
15 15 8 0 15 -7 15 -15z m23535 -56 c8 -23 -7 -39 -38 -39 -20 0 -32 23 -23
45 9 23 53 19 61 -6z m-13695 -39 c0 -13 -7 -20 -20 -20 -13 0 -20 7 -20 20 0
13 7 20 20 20 13 0 20 -7 20 -20z m419 11 c25 -16 4 -41 -34 -41 -28 0 -35 4
-35 19 0 28 40 40 69 22z m71 -6 c0 -8 -7 -15 -15 -15 -8 0 -15 7 -15 15 0 8
7 15 15 15 8 0 15 -7 15 -15z m-942 -17 c2 -13 -3 -18 -17 -18 -14 0 -21 -6
-21 -20 0 -16 -7 -20 -32 -20 -26 0 -36 6 -45 27 -7 15 -13 31 -13 35 0 15 29
8 39 -9 9 -16 10 -16 11 -1 0 30 72 35 78 6z m1022 7 c0 -8 -7 -15 -15 -15 -8
0 -15 7 -15 15 0 8 7 15 15 15 8 0 15 -7 15 -15z m-2800 -10 c0 -8 -7 -15 -15
-15 -8 0 -15 7 -15 15 0 8 7 15 15 15 8 0 15 -7 15 -15z m2380 0 c0 -8 -7 -15
-15 -15 -8 0 -15 7 -15 15 0 8 7 15 15 15 8 0 15 -7 15 -15z m2248 -2 c-5 -26
-38 -29 -38 -4 0 15 6 21 21 21 14 0 19 -5 17 -17z m-3638 -8 c0 -16 -43 -31
-59 -20 -25 15 -11 35 24 35 24 0 35 -5 35 -15z m2650 0 c0 -8 -7 -15 -15 -15
-8 0 -15 7 -15 15 0 8 7 15 15 15 8 0 15 -7 15 -15z m770 -10 c0 -8 -7 -15
-15 -15 -8 0 -15 7 -15 15 0 8 7 15 15 15 8 0 15 -7 15 -15z m-4430 -60 c0 -8
-7 -15 -15 -15 -8 0 -15 7 -15 15 0 8 7 15 15 15 8 0 15 -7 15 -15z m10290
-10 c0 -8 -7 -15 -15 -15 -8 0 -15 7 -15 15 0 8 7 15 15 15 8 0 15 -7 15 -15z
m-12510 -36 c0 -25 -33 -22 -38 4 -2 12 3 17 17 17 15 0 21 -6 21 -21z m12948
-27 c3 -17 -2 -22 -17 -22 -16 0 -21 6 -21 26 0 33 33 30 38 -4z m5378 14 c17
-17 18 -36 3 -36 -14 0 -39 25 -39 39 0 15 19 14 36 -3z m-3527 -11 c2 -2 1
-16 -3 -30 -7 -26 -46 -37 -46 -12 0 6 -3 23 -7 36 -6 22 -4 23 23 17 16 -4
31 -9 33 -11z m-21709 -10 c0 -8 -7 -15 -15 -15 -8 0 -15 7 -15 15 0 8 7 15
15 15 8 0 15 -7 15 -15z m8360 0 c0 -8 -7 -15 -15 -15 -8 0 -15 7 -15 15 0 8
7 15 15 15 8 0 15 -7 15 -15z m7490 0 c0 -8 -7 -15 -15 -15 -8 0 -15 7 -15 15
0 8 7 15 15 15 8 0 15 -7 15 -15z m250 0 c0 -8 -7 -15 -15 -15 -8 0 -15 7 -15
15 0 8 7 15 15 15 8 0 15 -7 15 -15z m5767 -2 c4 -10 11 -21 16 -24 22 -15 -2
-37 -42 -37 -44 -1 -49 7 -31 52 11 30 47 35 57 9z m3743 2 c0 -8 -9 -15 -20
-15 -11 0 -20 7 -20 15 0 8 9 15 20 15 11 0 20 -7 20 -15z m-11080 -20 c0 -8
-7 -15 -15 -15 -8 0 -15 7 -15 15 0 8 7 15 15 15 8 0 15 -7 15 -15z m7410 -10
c0 -14 -7 -28 -15 -32 -22 -8 -28 2 -21 32 8 33 36 33 36 0z m4390 10 c0 -8
-7 -15 -15 -15 -8 0 -15 7 -15 15 0 8 7 15 15 15 8 0 15 -7 15 -15z m-11070
-20 c0 -8 -7 -15 -15 -15 -8 0 -15 7 -15 15 0 8 7 15 15 15 8 0 15 -7 15 -15z
m370 0 c0 -8 -7 -15 -15 -15 -8 0 -15 7 -15 15 0 8 7 15 15 15 8 0 15 -7 15
-15z m-7270 -10 c0 -8 -7 -15 -15 -15 -8 0 -15 7 -15 15 0 8 7 15 15 15 8 0
15 -7 15 -15z m17380 0 c0 -8 -7 -15 -15 -15 -8 0 -15 7 -15 15 0 8 7 15 15
15 8 0 15 -7 15 -15z m-9990 -10 c0 -8 -7 -15 -15 -15 -8 0 -15 7 -15 15 0 8
7 15 15 15 8 0 15 -7 15 -15z m5270 0 c0 -8 -7 -15 -15 -15 -8 0 -15 7 -15 15
0 8 7 15 15 15 8 0 15 -7 15 -15z m4890 -10 c0 -8 -7 -15 -15 -15 -8 0 -15 7
-15 15 0 8 7 15 15 15 8 0 15 -7 15 -15z m-8510 -20 c0 -8 -7 -15 -15 -15 -8
0 -15 7 -15 15 0 8 7 15 15 15 8 0 15 -7 15 -15z m5230 4 c0 -7 12 -9 33 -5
25 4 38 0 60 -19 31 -27 34 -40 11 -49 -8 -3 -12 -11 -9 -16 4 -7 11 -7 18 -2
20 16 99 21 182 12 73 -8 81 -7 94 11 17 24 26 24 51 -1 11 -11 30 -21 43 -21
28 -2 27 -2 60 6 21 6 27 4 27 -8 0 -9 15 -20 35 -27 19 -6 35 -16 35 -22 0
-7 16 -9 43 -5 27 4 48 2 55 -5 7 -7 26 -12 44 -12 43 -1 49 -33 12 -60 -22
-16 -31 -17 -64 -7 -20 6 -69 11 -107 11 -39 0 -89 6 -111 14 -22 8 -43 12
-45 9 -11 -10 -138 16 -153 32 -12 12 -19 13 -30 4 -8 -6 -22 -8 -31 -4 -10 4
-43 9 -74 10 l-55 4 4 -30 c4 -27 2 -29 -27 -29 -17 0 -31 -4 -31 -10 0 -16
-32 -11 -46 8 -18 23 -18 62 0 62 9 0 12 7 9 19 -3 13 2 20 17 24 12 3 19 10
15 16 -8 14 -75 14 -75 1 0 -16 -30 -12 -36 5 -4 8 -13 15 -21 15 -25 0 -11
45 15 48 12 2 22 10 22 18 0 8 7 14 15 14 8 0 15 -5 15 -11z m2590 -4 c0 -8
-7 -15 -15 -15 -8 0 -15 7 -15 15 0 8 7 15 15 15 8 0 15 -7 15 -15z m990 0 c0
-8 -7 -15 -15 -15 -8 0 -15 7 -15 15 0 8 7 15 15 15 8 0 15 -7 15 -15z m570 0
c0 -8 -7 -15 -15 -15 -8 0 -15 7 -15 15 0 8 7 15 15 15 8 0 15 -7 15 -15z
m-5330 -30 c0 -36 -28 -62 -56 -51 -23 9 -17 60 9 72 39 20 47 16 47 -21z
m3190 10 c0 -20 -5 -25 -25 -25 -18 0 -25 5 -25 18 0 24 8 32 32 32 13 0 18
-7 18 -25z m128 -12 c-2 -12 -14 -19 -36 -21 -27 -3 -32 0 -32 17 0 17 6 21
36 21 28 0 35 -3 32 -17z m-5293 -30 c-8 -35 -11 -37 -30 -30 -8 4 -15 18 -15
32 0 20 5 25 26 25 24 0 25 -3 19 -27z m-13495 2 c0 -8 -7 -15 -15 -15 -8 0
-15 7 -15 15 0 8 7 15 15 15 8 0 15 -7 15 -15z m16568 -7 c6 -6 12 -24 12 -40
0 -25 -4 -29 -22 -26 -15 2 -24 11 -26 26 -3 16 -10 22 -28 22 -18 0 -24 5
-24 21 0 19 4 21 38 14 20 -4 43 -11 50 -17z m-1758 -3 c0 -8 -7 -15 -15 -15
-8 0 -15 7 -15 15 0 8 7 15 15 15 8 0 15 -7 15 -15z m-20820 -30 c0 -8 -9 -15
-20 -15 -11 0 -20 7 -20 15 0 8 9 15 20 15 11 0 20 -7 20 -15z m50 -5 c0 -13
-7 -20 -20 -20 -19 0 -27 20 -13 33 13 14 33 6 33 -13z m20770 -15 c0 -16 -27
-32 -37 -22 -3 4 -3 13 0 22 8 20 37 20 37 0z m-530 -20 c0 -8 -7 -15 -15 -15
-8 0 -15 7 -15 15 0 8 7 15 15 15 8 0 15 -7 15 -15z m-16590 -10 c0 -8 -7 -15
-15 -15 -8 0 -15 7 -15 15 0 8 7 15 15 15 8 0 15 -7 15 -15z m19993 -17 c15 1
27 -3 27 -7 0 -5 9 -11 20 -14 12 -3 20 -14 20 -26 0 -12 4 -21 9 -21 23 0 41
14 41 32 0 17 4 19 23 13 12 -4 43 -10 70 -12 50 -5 57 -15 31 -44 -13 -14
-26 -17 -59 -12 -38 5 -44 3 -50 -17 -5 -16 -12 -20 -28 -16 -12 3 -30 6 -39
6 -10 0 -18 7 -18 15 0 17 -26 21 -32 4 -2 -7 -20 -8 -52 -4 -37 6 -50 13 -58
31 -7 15 -20 24 -34 24 -35 0 -54 11 -54 31 0 15 7 18 46 15 25 -1 48 2 51 7
3 5 17 5 32 1 14 -4 38 -7 54 -6z m422 -48 c6 -4 36 -11 68 -14 62 -8 68 -17
37 -55 -23 -27 -97 -48 -114 -31 -5 5 -36 10 -69 10 -32 0 -67 5 -78 10 -23
13 -26 40 -4 40 8 0 15 7 15 15 0 35 109 54 145 25z m-22765 -35 c0 -8 -7 -15
-15 -15 -8 0 -15 -4 -15 -10 0 -5 -7 -10 -15 -10 -8 0 -15 7 -15 15 0 8 7 15
15 15 8 0 15 5 15 10 0 6 7 10 15 10 8 0 15 -7 15 -15z m22996 -20 c6 -8 22
-15 35 -15 44 0 69 -12 69 -31 0 -15 -7 -19 -35 -19 -19 0 -35 3 -35 8 0 4
-21 6 -47 4 -62 -3 -75 6 -67 47 6 31 9 32 38 27 17 -4 36 -13 42 -21z m754
10 c0 -8 -7 -15 -15 -15 -8 0 -15 7 -15 15 0 8 7 15 15 15 8 0 15 -7 15 -15z
m-1590 -30 c0 -8 -7 -15 -15 -15 -8 0 -15 7 -15 15 0 8 7 15 15 15 8 0 15 -7
15 -15z m2270 -70 c0 -8 -7 -15 -15 -15 -8 0 -15 7 -15 15 0 8 7 15 15 15 8 0
15 -7 15 -15z m-25800 -45 c0 -11 -7 -20 -15 -20 -8 0 -15 9 -15 20 0 11 7 20
15 20 8 0 15 -9 15 -20z m130 0 c0 -13 -7 -20 -20 -20 -13 0 -20 7 -20 20 0
13 7 20 20 20 13 0 20 -7 20 -20z m220 0 c0 -11 -7 -20 -15 -20 -8 0 -15 9
-15 20 0 11 7 20 15 20 8 0 15 -9 15 -20z m-470 -10 c0 -11 -7 -20 -15 -20 -8
0 -15 9 -15 20 0 11 7 20 15 20 8 0 15 -9 15 -20z m188 -12 c-4 -29 -38 -38
-38 -10 0 22 8 32 27 32 9 0 13 -8 11 -22z"/>
<path d="M19870 6299 c0 -5 5 -7 10 -4 6 3 10 8 10 11 0 2 -4 4 -10 4 -5 0
-10 -5 -10 -11z"/>
<path d="M13170 6291 c-21 -6 -16 -9 29 -15 43 -7 56 -5 69 8 15 15 13 16 -28
15 -25 -1 -56 -4 -70 -8z"/>
<path d="M13530 6290 c0 -5 7 -7 15 -4 8 4 15 8 15 10 0 2 -7 4 -15 4 -8 0
-15 -4 -15 -10z"/>
<path d="M12230 6280 c0 -8 -8 -10 -21 -7 -12 3 -33 1 -48 -5 l-26 -11 35 -8
c19 -4 39 -4 45 1 5 4 32 7 59 7 31 -1 51 3 54 11 2 8 -8 12 -31 12 -20 0 -42
3 -51 6 -9 4 -16 1 -16 -6z"/>
<path d="M12570 6280 c-26 -6 -29 -8 -12 -10 47 -5 82 -5 82 1 0 6 -29 21 -33
18 -1 -1 -18 -5 -37 -9z"/>
<path d="M12708 6282 c-16 -2 -28 -7 -28 -12 0 -4 9 -6 20 -3 11 3 20 0 20 -6
0 -6 7 -11 15 -11 15 0 21 26 8 32 -5 2 -20 2 -35 0z"/>
<path d="M12843 6283 c9 -2 17 -10 17 -18 0 -10 9 -11 38 -4 20 4 62 6 92 3
l55 -5 -34 15 c-22 11 -60 16 -110 15 -42 -1 -68 -3 -58 -6z"/>
<path d="M25266 6275 c-4 -11 1 -15 19 -15 28 0 33 15 9 24 -21 8 -21 8 -28
-9z"/>
<path d="M12473 6273 c-18 -7 -16 -23 2 -23 8 0 15 7 15 15 0 8 -1 15 -2 14
-2 0 -9 -3 -15 -6z"/>
<path d="M13083 6269 c14 -8 22 -8 30 0 8 8 3 11 -18 11 -26 -1 -28 -2 -12
-11z"/>
<path d="M25440 6264 c0 -14 3 -14 15 -4 8 7 15 14 15 16 0 2 -7 4 -15 4 -8 0
-15 -7 -15 -16z"/>
<path d="M12030 6260 c8 -5 22 -10 30 -10 13 0 13 1 0 10 -8 5 -22 10 -30 10
-13 0 -13 -1 0 -10z"/>
<path d="M12805 6260 c3 -5 10 -10 16 -10 5 0 9 5 9 10 0 6 -7 10 -16 10 -8 0
-12 -4 -9 -10z"/>
<path d="M11385 6250 l-20 -9 20 0 c11 0 27 4 35 9 13 9 13 10 0 9 -8 0 -24
-4 -35 -9z"/>
<path d="M11485 6250 c-3 -5 3 -10 15 -10 12 0 18 5 15 10 -3 6 -10 10 -15 10
-5 0 -12 -4 -15 -10z"/>
<path d="M11785 6250 c-3 -5 -1 -10 4 -10 6 0 11 5 11 10 0 6 -2 10 -4 10 -3
0 -8 -4 -11 -10z"/>
<path d="M11963 6253 c9 -2 23 -2 30 0 6 3 -1 5 -18 5 -16 0 -22 -2 -12 -5z"/>
<path d="M11095 6240 c-3 -5 -1 -10 4 -10 6 0 11 5 11 10 0 6 -2 10 -4 10 -3
0 -8 -4 -11 -10z"/>
<path d="M11268 6238 c8 -8 20 -8 44 -1 l33 11 -44 1 c-34 1 -42 -2 -33 -11z"/>
<path d="M10600 5968 c-19 -4 -42 -5 -50 -3 -8 3 -22 0 -30 -5 -10 -6 -11 -10
-2 -10 6 0 12 -7 12 -15 0 -21 -23 -19 -40 5 -8 12 -21 18 -31 15 -9 -3 -28
-1 -42 4 -14 6 -27 6 -29 1 -2 -4 -45 -4 -98 2 -71 8 -107 7 -147 -2 -39 -10
-56 -10 -66 -2 -22 19 -50 -17 -33 -40 10 -14 27 -18 70 -18 43 0 56 -3 56
-15 0 -18 20 -19 54 -4 19 9 29 9 40 0 8 -7 25 -9 40 -5 22 5 26 3 26 -15 0
-18 6 -21 45 -21 38 0 45 3 45 19 0 17 7 19 73 16 39 -1 78 2 85 8 9 7 20 7
35 -1 30 -15 46 -17 90 -8 27 6 43 4 61 -7 22 -15 24 -14 35 9 15 33 14 44 -4
44 -8 0 -17 11 -21 25 -3 14 -11 25 -18 26 -68 5 -127 4 -156 -3z"/>
<path d="M9251 5961 c-9 -6 -4 -10 18 -13 21 -3 31 0 31 9 0 15 -28 17 -49 4z"/>
<path d="M9375 5963 c-23 -6 -55 -37 -55 -53 0 -15 51 -12 69 4 18 15 184 29
198 16 4 -4 36 -5 71 -3 49 4 62 9 62 22 0 14 -11 17 -78 16 -42 -1 -87 -7
-99 -13 -20 -11 -44 -9 -128 11 -11 3 -29 3 -40 0z"/>
<path d="M9915 5951 c-3 -5 -1 -12 5 -16 5 -3 10 1 10 9 0 18 -6 21 -15 7z"/>
<path d="M9303 5843 c9 -2 23 -2 30 0 6 3 -1 5 -18 5 -16 0 -22 -2 -12 -5z"/>
<path d="M27425 5792 c-3 -3 -5 -16 -5 -28 0 -13 -7 -27 -17 -32 -14 -8 -13
-11 7 -17 12 -4 25 -3 29 2 3 6 23 13 44 17 32 6 37 4 37 -11 0 -15 7 -18 39
-15 21 2 47 0 57 -5 11 -6 30 -7 44 -2 16 4 19 7 8 8 -10 1 -18 5 -18 11 0 14
-42 53 -70 66 -31 13 -60 7 -60 -12 0 -8 -7 -14 -15 -14 -8 0 -15 6 -15 14 0
13 -55 28 -65 18z m175 -47 c0 -8 -7 -15 -15 -15 -8 0 -15 7 -15 15 0 8 7 15
15 15 8 0 15 -7 15 -15z"/>
<path d="M8635 5759 c-16 -4 -24 -7 -17 -8 17 -2 15 -41 -3 -41 -8 0 -15 6
-15 14 0 22 -35 26 -49 5 -6 -11 -18 -19 -26 -19 -8 0 -15 -4 -15 -10 0 -15
-51 -12 -84 5 -36 19 -46 19 -46 0 0 -9 9 -15 23 -15 13 0 27 -3 31 -7 4 -4
52 -6 107 -5 54 2 107 -1 117 -6 11 -6 36 -5 71 4 35 9 57 11 61 5 7 -12 100
-10 100 2 0 4 7 7 15 7 8 0 15 -4 15 -8 0 -4 29 -4 65 2 43 6 65 14 65 23 0 7
7 13 15 13 8 0 15 -7 15 -16 0 -8 5 -12 10 -9 6 3 10 15 10 26 0 16 -7 19 -46
19 -37 0 -47 -4 -51 -20 -6 -23 -33 -27 -33 -5 0 18 -11 19 -61 3 -37 -11 -40
-10 -64 18 -23 27 -29 29 -102 29 -43 0 -91 -3 -108 -6z m195 -24 c0 -8 -7
-15 -15 -15 -8 0 -15 7 -15 15 0 8 7 15 15 15 8 0 15 -7 15 -15z m-120 -20 c0
-8 -7 -15 -15 -15 -8 0 -15 7 -15 15 0 8 7 15 15 15 8 0 15 -7 15 -15z"/>
<path d="M27697 5748 c-23 -24 -18 -31 17 -22 17 4 26 12 24 22 -4 23 -21 23
-41 0z"/>
<path d="M8060 5713 c-14 -2 -35 -9 -48 -15 -17 -9 -25 -9 -34 0 -17 17 -123
15 -137 -2 -10 -12 11 -14 138 -12 130 1 175 6 160 20 -9 7 -55 13 -79 9z"/>
<path d="M8228 5713 c-28 -4 -40 -23 -15 -23 6 0 22 -3 33 -6 16 -4 23 0 27
15 3 13 1 20 -6 20 -7 -1 -24 -4 -39 -6z"/>
<path d="M7698 5696 c-37 -11 -29 -13 58 -18 43 -3 50 -1 46 14 -4 18 -46 20
-104 4z"/>
<path d="M7585 5690 c-3 -5 1 -10 9 -10 9 0 16 5 16 10 0 6 -4 10 -9 10 -6 0
-13 -4 -16 -10z"/>
<path d="M7420 5681 c0 -5 -8 -12 -17 -14 -14 -4 -14 -5 3 -6 12 0 27 6 34 14
10 12 10 15 -4 15 -9 0 -16 -4 -16 -9z"/>
<path d="M6785 5669 c-16 -5 -38 -7 -47 -5 -10 2 -18 0 -18 -4 0 -5 -19 -11
-42 -13 -34 -3 -31 -4 17 -5 76 -1 137 10 143 26 4 14 -10 14 -53 1z"/>
<path d="M6958 5673 c-14 -3 -15 -7 -5 -17 14 -16 37 -10 37 10 0 14 -3 15
-32 7z"/>
<path d="M7045 5671 c-30 -7 -30 -7 -5 -12 30 -6 50 -1 50 12 0 10 -1 10 -45
0z"/>
<path d="M7155 5670 c-3 -5 3 -10 14 -10 12 0 21 5 21 10 0 6 -6 10 -14 10 -8
0 -18 -4 -21 -10z"/>
<path d="M7298 5663 c7 -3 16 -2 19 1 4 3 -2 6 -13 5 -11 0 -14 -3 -6 -6z"/>
<path d="M6867 5649 c7 -7 15 -10 18 -7 3 3 -2 9 -12 12 -14 6 -15 5 -6 -5z"/>
<path d="M6466 5641 c-3 -4 8 -8 23 -7 16 1 27 4 24 9 -6 10 -41 9 -47 -2z"/>
<path d="M30050 5490 c0 -5 5 -10 11 -10 5 0 7 5 4 10 -3 6 -8 10 -11 10 -2 0
-4 -4 -4 -10z"/>
<path d="M6810 5449 c0 -5 5 -7 10 -4 6 3 10 8 10 11 0 2 -4 4 -10 4 -5 0 -10
-5 -10 -11z"/>
<path d="M30931 5311 c-10 -6 -10 -10 -1 -16 13 -8 24 -1 19 14 -3 6 -10 7
-18 2z"/>
<path d="M31018 5284 c-14 -14 -9 -54 7 -54 8 0 15 -4 15 -8 0 -4 16 -8 35 -8
21 0 35 5 35 12 0 25 -13 44 -29 43 -10 0 -11 -2 -3 -6 18 -7 14 -33 -5 -33
-27 0 -41 12 -44 38 -2 13 -7 20 -11 16z"/>
<path d="M29773 5254 c-18 -18 0 -26 22 -10 14 10 15 14 4 18 -8 3 -20 0 -26
-8z"/>
<path d="M4178 5233 c7 -3 16 -2 19 1 4 3 -2 6 -13 5 -11 0 -14 -3 -6 -6z"/>
<path d="M30980 5210 c0 -5 5 -10 10 -10 6 0 10 5 10 10 0 6 -4 10 -10 10 -5
0 -10 -4 -10 -10z"/>
<path d="M4020 5179 c0 -11 5 -17 10 -14 6 3 10 13 10 21 0 8 -4 14 -10 14 -5
0 -10 -9 -10 -21z"/>
<path d="M3965 5180 c-8 -13 -1 -24 14 -19 6 3 7 10 2 18 -6 10 -10 10 -16 1z"/>
<path d="M3305 5070 c3 -5 13 -10 21 -10 8 0 14 -7 14 -15 0 -8 5 -15 10 -15
18 0 11 29 -9 40 -25 13 -44 13 -36 0z"/>
<path d="M2786 5021 c-27 -18 -27 -19 -8 -25 11 -4 23 -12 25 -19 2 -7 2 -1 0
12 -2 13 2 28 9 32 7 4 10 10 7 13 -3 3 -18 -3 -33 -13z"/>
<path d="M2910 5020 c0 -5 -7 -10 -15 -10 -9 0 -12 -6 -8 -16 3 -9 0 -20 -8
-25 -10 -6 -10 -9 -1 -9 6 0 12 -9 12 -20 0 -11 5 -20 10 -20 14 0 12 -28 -2
-32 -9 -3 -8 -9 4 -21 20 -20 41 -21 69 -4 17 9 23 9 26 0 5 -13 45 0 75 25
12 10 25 11 50 4 50 -14 145 7 140 31 -2 10 3 17 12 17 9 0 16 -4 16 -9 0 -21
29 -38 59 -33 17 2 31 8 31 13 0 5 7 9 15 9 8 0 15 5 15 10 0 6 14 10 30 10
20 0 30 -5 30 -15 0 -8 4 -15 9 -15 5 0 8 18 7 40 0 26 -3 34 -9 25 -8 -16
-37 -21 -37 -7 0 13 -74 34 -78 22 -5 -15 -32 -12 -38 5 -9 23 -23 18 -30 -10
-7 -29 -50 -36 -56 -8 -3 15 -4 15 -20 0 -11 -12 -25 -15 -47 -11 -20 4 -31 2
-31 -5 0 -6 -9 -11 -20 -11 -11 0 -20 -7 -20 -15 0 -8 -9 -15 -20 -15 -16 0
-20 7 -20 30 0 23 -4 30 -20 30 -25 0 -27 27 -2 33 13 4 11 5 -5 6 -14 1 -23
-5 -23 -13 0 -14 -29 -26 -62 -26 -13 0 -18 8 -18 25 0 14 -4 25 -10 25 -5 0
-10 -4 -10 -10z m30 -65 c0 -8 -7 -15 -15 -15 -8 0 -15 7 -15 15 0 8 7 15 15
15 8 0 15 -7 15 -15z m460 -5 c0 -11 -7 -20 -15 -20 -8 0 -15 9 -15 20 0 11 7
20 15 20 8 0 15 -9 15 -20z m-40 -5 c0 -8 -7 -15 -15 -15 -8 0 -15 7 -15 15 0
8 7 15 15 15 8 0 15 -7 15 -15z"/>
<path d="M2835 5010 c3 -5 12 -7 20 -3 21 7 19 13 -6 13 -11 0 -18 -4 -14 -10z"/>
<path d="M2725 4990 c-3 -5 -1 -10 4 -10 6 0 11 5 11 10 0 6 -2 10 -4 10 -3 0
-8 -4 -11 -10z"/>
<path d="M3630 4992 c-46 -6 -52 -10 -38 -25 7 -8 20 -12 30 -9 10 2 18 0 18
-6 0 -12 71 -25 134 -24 50 1 68 8 50 20 -6 4 -13 15 -17 25 -5 12 -18 17 -49
18 -24 0 -56 1 -73 3 -16 1 -41 0 -55 -2z"/>
<path d="M3537 4941 c6 -22 29 -35 38 -21 9 15 -6 40 -25 40 -13 0 -17 -6 -13
-19z"/>
<path d="M2590 4920 c-13 -8 -12 -10 3 -10 9 0 17 5 17 10 0 12 -1 12 -20 0z"/>
<path d="M2776 4881 c-31 -6 -49 -31 -23 -31 9 0 17 -5 19 -11 5 -14 38 0 38
17 0 8 9 14 20 14 11 0 20 5 20 10 0 11 -28 11 -74 1z"/>
<path d="M2634 4839 c-3 -6 -2 -15 3 -20 13 -13 43 -1 43 17 0 16 -36 19 -46
3z"/>
<path d="M2547 4816 c-9 -9 -27 -16 -41 -16 -17 0 -26 -5 -26 -16 0 -11 -6
-15 -19 -11 -14 3 -18 1 -14 -9 3 -8 11 -14 18 -14 22 0 75 22 75 31 0 5 7 9
15 9 8 0 15 5 15 10 0 14 27 12 34 -2 3 -7 5 -4 3 7 -3 25 -39 31 -60 11z"/>
<path d="M2406 4735 c4 -8 10 -12 15 -9 11 6 2 24 -11 24 -5 0 -7 -7 -4 -15z"/>
<path d="M2450 4649 c0 -5 5 -7 10 -4 6 3 10 8 10 11 0 2 -4 4 -10 4 -5 0 -10
-5 -10 -11z"/>
<path d="M31885 4566 c-45 -16 -71 -34 -63 -42 4 -4 19 1 32 10 31 20 46 20
46 1 0 -8 9 -15 20 -15 23 0 27 25 7 44 -9 10 -19 10 -42 2z"/>
<path d="M31985 4510 c3 -5 8 -10 11 -10 2 0 4 5 4 10 0 6 -5 10 -11 10 -5 0
-7 -4 -4 -10z"/>
<path d="M32227 4513 c-11 -11 -8 -23 6 -23 8 0 21 -8 30 -18 22 -24 89 -19
80 7 -3 9 -13 22 -21 29 -17 13 -84 17 -95 5z"/>
<path d="M31280 4410 c0 -16 7 -20 31 -20 25 0 28 2 17 13 -25 25 -48 28 -48
7z"/>
<path d="M31805 4070 c3 -5 8 -10 11 -10 2 0 4 5 4 10 0 6 -5 10 -11 10 -5 0
-7 -4 -4 -10z"/>
<path d="M31840 4053 c-15 -6 -30 -22 -30 -33 0 -4 17 -4 38 -2 34 4 51 16 52
35 0 8 -38 8 -60 0z"/>
<path d="M32148 4014 c12 -8 27 -12 32 -9 17 10 1 25 -28 25 l-26 0 22 -16z"/>
<path d="M1777 3939 c-9 -32 -2 -34 29 -10 15 11 22 21 16 21 -6 0 -17 3 -25
6 -9 3 -16 -3 -20 -17z"/>
<path d="M31888 3903 c7 -3 16 -2 19 1 4 3 -2 6 -13 5 -11 0 -14 -3 -6 -6z"/>
<path d="M30763 3715 c-16 -17 -17 -29 -2 -19 6 3 22 1 35 -7 31 -16 42 -5 19
21 -21 23 -35 25 -52 5z"/>
<path d="M30905 3700 c3 -5 13 -10 21 -10 8 0 14 -4 14 -9 0 -4 11 -6 25 -3
45 8 30 32 -21 32 -27 0 -43 -4 -39 -10z"/>
<path d="M31012 3685 c-7 -8 -11 -15 -10 -15 37 -6 98 -6 98 0 0 7 -54 31 -69
30 -3 -1 -12 -7 -19 -15z"/>
<path d="M31146 3664 c-17 -12 -14 -13 90 -28 17 -2 40 -8 50 -14 11 -6 66
-13 123 -16 57 -3 109 -10 115 -15 18 -15 120 -26 112 -12 -4 6 -12 9 -17 6
-8 -6 -52 5 -104 26 -11 4 -42 10 -70 13 -27 4 -63 10 -80 16 -16 5 -69 15
-116 23 -68 11 -90 11 -103 1z"/>
<path d="M31136 3373 c-4 -10 1 -12 22 -7 36 9 37 11 8 16 -16 3 -27 0 -30 -9z"/>
<path d="M3213 3233 c-40 -21 -49 -29 -38 -36 8 -4 32 -3 55 4 32 10 40 17 40
36 0 12 -1 23 -2 23 -2 0 -27 -12 -55 -27z"/>
<path d="M3530 3224 c0 -15 6 -16 35 -5 17 7 17 8 -8 13 -19 4 -27 1 -27 -8z"/>
<path d="M31490 2926 c0 -16 22 -26 53 -26 22 1 22 1 -2 20 -27 23 -51 26 -51
6z"/>
<path d="M27610 2390 c0 -5 9 -10 20 -10 11 0 20 5 20 10 0 6 -9 10 -20 10
-11 0 -20 -4 -20 -10z"/>
<path d="M27698 2378 c9 -9 15 -9 24 0 9 9 7 12 -12 12 -19 0 -21 -3 -12 -12z"/>
<path d="M27795 2371 c22 -4 54 -11 70 -15 24 -6 27 -5 13 4 -10 6 -42 13 -70
15 -48 4 -49 3 -13 -4z"/>
<path d="M28030 2342 c36 -13 151 -23 123 -12 -12 5 -50 11 -85 14 -40 4 -54
3 -38 -2z"/>
<path d="M27489 2309 c-20 -12 2 -32 30 -27 22 3 22 3 3 19 -12 11 -25 14 -33
8z"/>
<path d="M27948 2273 c6 -2 12 -11 12 -19 0 -8 5 -14 10 -14 6 0 10 9 10 20 0
14 -6 20 -22 19 -13 0 -17 -3 -10 -6z"/>
<path d="M10935 2200 c-11 -4 -37 -6 -57 -3 -25 4 -38 2 -38 -6 0 -6 -6 -11
-13 -11 -7 0 -18 -9 -25 -20 -14 -24 -40 -26 -48 -5 -8 19 -30 19 -37 1 -3 -8
-16 -16 -28 -18 -42 -6 -32 -26 18 -35 26 -4 55 -7 63 -6 8 1 31 -3 51 -9 27
-8 50 -6 96 5 57 15 103 14 103 -3 0 -4 19 -4 41 1 23 5 49 7 59 4 10 -3 21
-1 25 5 3 5 15 10 26 10 23 0 26 25 3 34 -9 3 -29 6 -46 6 -26 0 -29 3 -26 27
l3 27 -75 3 c-41 1 -84 -2 -95 -7z"/>
<path d="M11188 2199 c-22 -12 -23 -29 -3 -29 8 0 15 -5 15 -11 0 -19 41 -48
76 -55 36 -7 64 7 64 32 0 8 5 14 11 14 21 0 49 -21 49 -37 0 -14 2 -14 25 1
30 20 51 20 59 1 3 -8 17 -15 30 -15 19 0 27 7 32 25 8 31 54 37 54 7 0 -10 5
-23 11 -29 14 -14 39 -6 39 13 0 17 22 18 38 2 10 -10 14 -8 18 10 9 33 50 30
62 -5 l9 -28 5 33 c3 25 1 32 -12 32 -9 0 -22 6 -29 13 -10 10 -14 9 -22 -5
-14 -25 -63 -32 -112 -15 -55 20 -115 28 -122 16 -4 -5 -27 -9 -52 -9 -41 0
-45 2 -40 21 5 18 2 20 -21 14 -15 -4 -34 -13 -43 -21 -8 -8 -23 -14 -33 -14
-19 0 -46 23 -46 39 0 14 -39 14 -62 0z"/>
<path d="M12751 2202 c-6 -2 -11 -11 -11 -19 0 -13 -8 -14 -42 -9 -24 4 -44
11 -46 15 -5 15 -166 1 -175 -15 -11 -19 -41 -18 -58 2 -8 10 -21 13 -37 9
-14 -3 -38 -1 -54 6 -20 8 -32 9 -36 2 -4 -6 -27 -14 -52 -18 -25 -4 -50 -12
-57 -17 -7 -5 -22 -6 -35 -2 -24 8 -111 6 -140 -2 -10 -3 -18 -12 -18 -20 0
-8 -4 -14 -9 -14 -21 0 -41 13 -41 26 0 8 -10 14 -24 14 -14 0 -28 5 -32 12
-5 7 -11 5 -21 -7 -18 -26 -16 -45 5 -45 9 0 30 -7 46 -15 32 -17 76 -20 76
-5 0 15 48 24 63 12 7 -6 36 -14 64 -18 49 -6 51 -5 55 17 5 36 44 38 52 3 6
-22 9 -25 16 -14 7 12 15 12 37 4 41 -14 63 -7 63 22 0 15 6 24 15 24 8 0 15
-6 15 -13 0 -22 55 -35 123 -30 42 4 67 2 71 -6 10 -16 117 -13 140 4 12 9 33
12 66 8 47 -5 48 -5 43 21 -4 19 -1 26 11 26 9 0 20 -8 24 -17 4 -10 16 -19
27 -19 11 -1 28 -5 38 -9 12 -5 17 -3 17 9 0 9 -7 16 -15 16 -8 0 -15 7 -15
15 0 8 -6 15 -14 15 -8 0 -21 6 -28 14 -14 13 -85 25 -107 18z m-141 -67 c0
-16 -6 -25 -15 -25 -9 0 -15 9 -15 25 0 16 6 25 15 25 9 0 15 -9 15 -25z m40
-20 c0 -8 -7 -15 -15 -15 -8 0 -15 7 -15 15 0 8 7 15 15 15 8 0 15 -7 15 -15z"/>
<path d="M10320 2190 c0 -5 6 -10 14 -10 8 0 18 5 21 10 3 6 -3 10 -14 10 -12
0 -21 -4 -21 -10z"/>
<path d="M15310 2170 c0 -5 11 -10 25 -10 15 0 25 -6 25 -14 0 -8 7 -16 15
-20 10 -4 15 1 15 14 0 11 5 20 10 20 6 0 10 5 10 10 0 6 -22 10 -50 10 -27 0
-50 -4 -50 -10z"/>
<path d="M10480 2118 c0 -9 -6 -19 -12 -22 -7 -3 -4 -4 7 -2 11 3 51 8 89 12
57 5 66 9 50 18 -10 6 -45 11 -76 11 -48 0 -58 -3 -58 -17z"/>
<path d="M28171 2074 c0 -11 3 -14 6 -6 3 7 2 16 -1 19 -3 4 -6 -2 -5 -13z"/>
<path d="M27635 2010 c10 -11 25 -20 34 -20 12 0 9 6 -9 20 -33 26 -48 26 -25
0z"/>
<path d="M27780 2000 c0 -16 41 -33 52 -22 6 6 7 15 4 21 -9 14 -56 15 -56 1z"/>
<path d="M2548 1743 c7 -3 16 -2 19 1 4 3 -2 6 -13 5 -11 0 -14 -3 -6 -6z"/>
<path d="M2433 1733 c9 -2 23 -2 30 0 6 3 -1 5 -18 5 -16 0 -22 -2 -12 -5z"/>
<path d="M2240 1720 c-12 -8 -10 -10 8 -10 13 0 20 4 17 10 -7 12 -6 12 -25 0z"/>
<path d="M2313 1723 c9 -2 23 -2 30 0 6 3 -1 5 -18 5 -16 0 -22 -2 -12 -5z"/>
<path d="M25780 1710 c0 -14 7 -20 22 -20 20 0 21 1 3 20 -10 11 -20 20 -22
20 -1 0 -3 -9 -3 -20z"/>
<path d="M25866 1709 c-15 -9 -16 -13 -5 -20 19 -12 59 -11 59 1 0 6 9 10 20
10 11 0 20 -4 20 -8 0 -4 12 -15 28 -24 21 -12 46 -14 114 -10 48 2 85 8 82
13 -3 5 -18 9 -35 9 -16 0 -29 5 -29 11 0 6 -8 8 -20 4 -10 -3 -36 -2 -57 4
-66 16 -157 21 -177 10z"/>
<path d="M26448 1643 c7 -3 16 -2 19 1 4 3 -2 6 -13 5 -11 0 -14 -3 -6 -6z"/>
<path d="M26565 1640 c-3 -5 1 -10 9 -10 8 0 18 5 21 10 3 6 -1 10 -9 10 -8 0
-18 -4 -21 -10z"/>
</g>
</svg>
